<svg version="1.1" viewBox="0.0 0.0 600.0 371.0" fill="none" stroke="none" stroke-linecap="square"
     stroke-miterlimit="10" width="600" height="371"
     xmlns="http://www.w3.org/2000/svg"><path fill="#ffffff" d="M0 0L600.0 0L600.0 371.0L0 371.0L0 0Z" fill-rule="nonzero"/><path stroke="#cccccc" stroke-width="1.0" stroke-linecap="butt" d="M132.5 61.5L132.5 300.5" fill-rule="nonzero"/><path stroke="#cccccc" stroke-width="1.0" stroke-linecap="butt" d="M200.5 61.5L200.5 300.5" fill-rule="nonzero"/><path stroke="#cccccc" stroke-width="1.0" stroke-linecap="butt" d="M268.5 61.5L268.5 300.5" fill-rule="nonzero"/><path stroke="#cccccc" stroke-width="1.0" stroke-linecap="butt" d="M336.5 61.5L336.5 300.5" fill-rule="nonzero"/><path stroke="#cccccc" stroke-width="1.0" stroke-linecap="butt" d="M404.5 61.5L404.5 300.5" fill-rule="nonzero"/><path stroke="#cccccc" stroke-width="1.0" stroke-linecap="butt" d="M472.5 61.5L472.5 300.5" fill-rule="nonzero"/><path stroke="#cccccc" stroke-width="1.0" stroke-linecap="butt" d="M540.5 61.5L540.5 300.5" fill-rule="nonzero"/><path stroke="#333333" stroke-width="1.0" stroke-linecap="butt" d="M77.5 300.5L581.5 300.5" fill-rule="nonzero"/><path stroke="#cccccc" stroke-width="1.0" stroke-linecap="butt" d="M77.5 240.5L581.5 240.5" fill-rule="nonzero"/><path stroke="#cccccc" stroke-width="1.0" stroke-linecap="butt" d="M77.5 181.5L581.5 181.5" fill-rule="nonzero"/><path stroke="#cccccc" stroke-width="1.0" stroke-linecap="butt" d="M77.5 121.5L581.5 121.5" fill-rule="nonzero"/><path stroke="#cccccc" stroke-width="1.0" stroke-linecap="butt" d="M77.5 61.5L581.5 61.5" fill-rule="nonzero"/><clipPath id="id_0"><path d="M77.55 61.916668L581.45 61.916668L581.45 300.45L77.55 300.45L77.55 61.916668Z" clip-rule="nonzero"/></clipPath><path stroke="#4285f4" stroke-width="2.0" stroke-linecap="butt" clip-path="url(#id_0)" d="M77.55 242.99329L91.16892 288.55316L104.787834 283.0669L118.40675 276.23886L132.02568 271.826L145.64459 264.25256L159.26352 261.8076L172.88243 247.37633L186.50136 250.38782L200.12027 246.92908L213.7392 228.65147L227.35811 235.3304L240.97702 228.11476L254.59595 220.42207L268.21487 211.8945L281.83377 212.93808L295.4527 208.07797L309.07162 194.3623L322.69055 197.16507L336.30945 189.44255L349.92838 180.82553L363.5473 180.64664L377.16623 173.31174L390.78513 156.91257L404.40405 146.35747L418.02298 168.63052L431.6419 149.39877L445.2608 145.46297L458.87973 140.8712L472.49866 140.39413L486.11755 114.5729L499.73648 123.45827L513.3554 109.056816L526.9743 91.25626L540.59326 108.69902L554.21216 97.69666L567.83105 85.47183L581.45 86.873215" fill-rule="nonzero"/><path fill="#000000" fill-opacity="0.0" clip-path="url(#id_0)" d="M80.55 242.99329C80.55 244.65013 79.206856 245.99329 77.55 245.99329C75.89314 245.99329 74.55 244.65013 74.55 242.99329C74.55 241.33643 75.89314 239.99329 77.55 239.99329C79.206856 239.99329 80.55 241.33643 80.55 242.99329Z" fill-rule="nonzero"/><path fill="#000000" fill-opacity="0.0" clip-path="url(#id_0)" d="M94.16892 288.55316C94.16892 290.21 92.825775 291.55316 91.16892 291.55316C89.51206 291.55316 88.16892 290.21 88.16892 288.55316C88.16892 286.8963 89.51206 285.55316 91.16892 285.55316C92.825775 285.55316 94.16892 286.8963 94.16892 288.55316Z" fill-rule="nonzero"/><path fill="#000000" fill-opacity="0.0" clip-path="url(#id_0)" d="M107.787834 283.0669C107.787834 284.72372 106.444695 286.0669 104.787834 286.0669C103.13098 286.0669 101.787834 284.72372 101.787834 283.0669C101.787834 281.41003 103.13098 280.0669 104.787834 280.0669C106.444695 280.0669 107.787834 281.41003 107.787834 283.0669Z" fill-rule="nonzero"/><path fill="#000000" fill-opacity="0.0" clip-path="url(#id_0)" d="M121.40675 276.23886C121.40675 277.89572 120.063614 279.23886 118.40675 279.23886C116.7499 279.23886 115.40675 277.89572 115.40675 276.23886C115.40675 274.582 116.7499 273.23886 118.40675 273.23886C120.063614 273.23886 121.40675 274.582 121.40675 276.23886Z" fill-rule="nonzero"/><path fill="#000000" fill-opacity="0.0" clip-path="url(#id_0)" d="M135.02568 271.826C135.02568 273.48285 133.68253 274.826 132.02568 274.826C130.36882 274.826 129.02568 273.48285 129.02568 271.826C129.02568 270.16916 130.36882 268.826 132.02568 268.826C133.68253 268.826 135.02568 270.16916 135.02568 271.826Z" fill-rule="nonzero"/><path fill="#000000" fill-opacity="0.0" clip-path="url(#id_0)" d="M148.64459 264.25256C148.64459 265.90942 147.30145 267.25256 145.64459 267.25256C143.98775 267.25256 142.64459 265.90942 142.64459 264.25256C142.64459 262.5957 143.98775 261.25256 145.64459 261.25256C147.30145 261.25256 148.64459 262.5957 148.64459 264.25256Z" fill-rule="nonzero"/><path fill="#000000" fill-opacity="0.0" clip-path="url(#id_0)" d="M162.26352 261.8076C162.26352 263.46445 160.92036 264.8076 159.26352 264.8076C157.60666 264.8076 156.26352 263.46445 156.26352 261.8076C156.26352 260.15076 157.60666 258.8076 159.26352 258.8076C160.92036 258.8076 162.26352 260.15076 162.26352 261.8076Z" fill-rule="nonzero"/><path fill="#000000" fill-opacity="0.0" clip-path="url(#id_0)" d="M175.88243 247.37633C175.88243 249.03319 174.53929 250.37633 172.88243 250.37633C171.22557 250.37633 169.88243 249.03319 169.88243 247.37633C169.88243 245.71948 171.22557 244.37633 172.88243 244.37633C174.53929 244.37633 175.88243 245.71948 175.88243 247.37633Z" fill-rule="nonzero"/><path fill="#000000" fill-opacity="0.0" clip-path="url(#id_0)" d="M189.50136 250.38782C189.50136 252.04468 188.1582 253.38782 186.50136 253.38782C184.8445 253.38782 183.50136 252.04468 183.50136 250.38782C183.50136 248.73096 184.8445 247.38782 186.50136 247.38782C188.1582 247.38782 189.50136 248.73096 189.50136 250.38782Z" fill-rule="nonzero"/><path fill="#000000" fill-opacity="0.0" clip-path="url(#id_0)" d="M203.12027 246.92908C203.12027 248.58594 201.77713 249.92908 200.12027 249.92908C198.46341 249.92908 197.12027 248.58594 197.12027 246.92908C197.12027 245.27223 198.46341 243.92908 200.12027 243.92908C201.77713 243.92908 203.12027 245.27223 203.12027 246.92908Z" fill-rule="nonzero"/><path fill="#000000" fill-opacity="0.0" clip-path="url(#id_0)" d="M216.7392 228.65147C216.7392 230.30832 215.39604 231.65147 213.7392 231.65147C212.08234 231.65147 210.7392 230.30832 210.7392 228.65147C210.7392 226.99461 212.08234 225.65147 213.7392 225.65147C215.39604 225.65147 216.7392 226.99461 216.7392 228.65147Z" fill-rule="nonzero"/><path fill="#000000" fill-opacity="0.0" clip-path="url(#id_0)" d="M230.35811 235.3304C230.35811 236.98726 229.01497 238.3304 227.35811 238.3304C225.70125 238.3304 224.35811 236.98726 224.35811 235.3304C224.35811 233.67354 225.70125 232.3304 227.35811 232.3304C229.01497 232.3304 230.35811 233.67354 230.35811 235.3304Z" fill-rule="nonzero"/><path fill="#000000" fill-opacity="0.0" clip-path="url(#id_0)" d="M243.97702 228.11476C243.97702 229.77162 242.63388 231.11476 240.97702 231.11476C239.32018 231.11476 237.97702 229.77162 237.97702 228.11476C237.97702 226.45792 239.32018 225.11476 240.97702 225.11476C242.63388 225.11476 243.97702 226.45792 243.97702 228.11476Z" fill-rule="nonzero"/><path fill="#000000" fill-opacity="0.0" clip-path="url(#id_0)" d="M257.59595 220.42207C257.59595 222.07892 256.2528 223.42207 254.59595 223.42207C252.93909 223.42207 251.59595 222.07892 251.59595 220.42207C251.59595 218.76521 252.93909 217.42207 254.59595 217.42207C256.2528 217.42207 257.59595 218.76521 257.59595 220.42207Z" fill-rule="nonzero"/><path fill="#000000" fill-opacity="0.0" clip-path="url(#id_0)" d="M271.21487 211.8945C271.21487 213.55136 269.8717 214.8945 268.21487 214.8945C266.558 214.8945 265.21487 213.55136 265.21487 211.8945C265.21487 210.23764 266.558 208.8945 268.21487 208.8945C269.8717 208.8945 271.21487 210.23764 271.21487 211.8945Z" fill-rule="nonzero"/><path fill="#000000" fill-opacity="0.0" clip-path="url(#id_0)" d="M284.83377 212.93808C284.83377 214.59494 283.49063 215.93808 281.83377 215.93808C280.17694 215.93808 278.83377 214.59494 278.83377 212.93808C278.83377 211.28123 280.17694 209.93808 281.83377 209.93808C283.49063 209.93808 284.83377 211.28123 284.83377 212.93808Z" fill-rule="nonzero"/><path fill="#000000" fill-opacity="0.0" clip-path="url(#id_0)" d="M298.4527 208.07797C298.4527 209.73482 297.10956 211.07797 295.4527 211.07797C293.79584 211.07797 292.4527 209.73482 292.4527 208.07797C292.4527 206.42111 293.79584 205.07797 295.4527 205.07797C297.10956 205.07797 298.4527 206.42111 298.4527 208.07797Z" fill-rule="nonzero"/><path fill="#000000" fill-opacity="0.0" clip-path="url(#id_0)" d="M312.07162 194.3623C312.07162 196.01915 310.7285 197.3623 309.07162 197.3623C307.41476 197.3623 306.07162 196.01915 306.07162 194.3623C306.07162 192.70544 307.41476 191.3623 309.07162 191.3623C310.7285 191.3623 312.07162 192.70544 312.07162 194.3623Z" fill-rule="nonzero"/><path fill="#000000" fill-opacity="0.0" clip-path="url(#id_0)" d="M325.69055 197.16507C325.69055 198.82191 324.34738 200.16507 322.69055 200.16507C321.0337 200.16507 319.69055 198.82191 319.69055 197.16507C319.69055 195.50821 321.0337 194.16507 322.69055 194.16507C324.34738 194.16507 325.69055 195.50821 325.69055 197.16507Z" fill-rule="nonzero"/><path fill="#000000" fill-opacity="0.0" clip-path="url(#id_0)" d="M339.30945 189.44255C339.30945 191.09941 337.9663 192.44255 336.30945 192.44255C334.65262 192.44255 333.30945 191.09941 333.30945 189.44255C333.30945 187.78569 334.65262 186.44255 336.30945 186.44255C337.9663 186.44255 339.30945 187.78569 339.30945 189.44255Z" fill-rule="nonzero"/><path fill="#000000" fill-opacity="0.0" clip-path="url(#id_0)" d="M352.92838 180.82553C352.92838 182.48239 351.58524 183.82553 349.92838 183.82553C348.2715 183.82553 346.92838 182.48239 346.92838 180.82553C346.92838 179.16869 348.2715 177.82553 349.92838 177.82553C351.58524 177.82553 352.92838 179.16869 352.92838 180.82553Z" fill-rule="nonzero"/><path fill="#000000" fill-opacity="0.0" clip-path="url(#id_0)" d="M366.5473 180.64664C366.5473 182.30348 365.20416 183.64664 363.5473 183.64664C361.89044 183.64664 360.5473 182.30348 360.5473 180.64664C360.5473 178.98978 361.89044 177.64664 363.5473 177.64664C365.20416 177.64664 366.5473 178.98978 366.5473 180.64664Z" fill-rule="nonzero"/><path fill="#000000" fill-opacity="0.0" clip-path="url(#id_0)" d="M380.16623 173.31174C380.16623 174.96858 378.82306 176.31174 377.16623 176.31174C375.50937 176.31174 374.16623 174.96858 374.16623 173.31174C374.16623 171.65488 375.50937 170.31174 377.16623 170.31174C378.82306 170.31174 380.16623 171.65488 380.16623 173.31174Z" fill-rule="nonzero"/><path fill="#000000" fill-opacity="0.0" clip-path="url(#id_0)" d="M393.78513 156.91257C393.78513 158.56943 392.442 159.91257 390.78513 159.91257C389.1283 159.91257 387.78513 158.56943 387.78513 156.91257C387.78513 155.2557 389.1283 153.91257 390.78513 153.91257C392.442 153.91257 393.78513 155.2557 393.78513 156.91257Z" fill-rule="nonzero"/><path fill="#000000" fill-opacity="0.0" clip-path="url(#id_0)" d="M407.40405 146.35747C407.40405 148.01433 406.0609 149.35747 404.40405 149.35747C402.7472 149.35747 401.40405 148.01433 401.40405 146.35747C401.40405 144.7006 402.7472 143.35747 404.40405 143.35747C406.0609 143.35747 407.40405 144.7006 407.40405 146.35747Z" fill-rule="nonzero"/><path fill="#000000" fill-opacity="0.0" clip-path="url(#id_0)" d="M421.02298 168.63052C421.02298 170.28737 419.67984 171.63052 418.02298 171.63052C416.36612 171.63052 415.02298 170.28737 415.02298 168.63052C415.02298 166.97366 416.36612 165.63052 418.02298 165.63052C419.67984 165.63052 421.02298 166.97366 421.02298 168.63052Z" fill-rule="nonzero"/><path fill="#000000" fill-opacity="0.0" clip-path="url(#id_0)" d="M434.6419 149.39877C434.6419 151.05562 433.29874 152.39877 431.6419 152.39877C429.98505 152.39877 428.6419 151.05562 428.6419 149.39877C428.6419 147.74191 429.98505 146.39877 431.6419 146.39877C433.29874 146.39877 434.6419 147.74191 434.6419 149.39877Z" fill-rule="nonzero"/><path fill="#000000" fill-opacity="0.0" clip-path="url(#id_0)" d="M448.2608 145.46297C448.2608 147.11983 446.91766 148.46297 445.2608 148.46297C443.60394 148.46297 442.2608 147.11983 442.2608 145.46297C442.2608 143.8061 443.60394 142.46297 445.2608 142.46297C446.91766 142.46297 448.2608 143.8061 448.2608 145.46297Z" fill-rule="nonzero"/><path fill="#000000" fill-opacity="0.0" clip-path="url(#id_0)" d="M461.87973 140.8712C461.87973 142.52806 460.5366 143.8712 458.87973 143.8712C457.22287 143.8712 455.87973 142.52806 455.87973 140.8712C455.87973 139.21434 457.22287 137.8712 458.87973 137.8712C460.5366 137.8712 461.87973 139.21434 461.87973 140.8712Z" fill-rule="nonzero"/><path fill="#000000" fill-opacity="0.0" clip-path="url(#id_0)" d="M475.49866 140.39413C475.49866 142.051 474.15552 143.39413 472.49866 143.39413C470.8418 143.39413 469.49866 142.051 469.49866 140.39413C469.49866 138.73727 470.8418 137.39413 472.49866 137.39413C474.15552 137.39413 475.49866 138.73727 475.49866 140.39413Z" fill-rule="nonzero"/><path fill="#000000" fill-opacity="0.0" clip-path="url(#id_0)" d="M489.11755 114.5729C489.11755 116.22975 487.7744 117.5729 486.11755 117.5729C484.46072 117.5729 483.11755 116.22975 483.11755 114.5729C483.11755 112.916046 484.46072 111.5729 486.11755 111.5729C487.7744 111.5729 489.11755 112.916046 489.11755 114.5729Z" fill-rule="nonzero"/><path fill="#000000" fill-opacity="0.0" clip-path="url(#id_0)" d="M502.73648 123.45827C502.73648 125.11512 501.39334 126.45827 499.73648 126.45827C498.07962 126.45827 496.73648 125.11512 496.73648 123.45827C496.73648 121.801414 498.07962 120.45827 499.73648 120.45827C501.39334 120.45827 502.73648 121.801414 502.73648 123.45827Z" fill-rule="nonzero"/><path fill="#000000" fill-opacity="0.0" clip-path="url(#id_0)" d="M516.3554 109.056816C516.3554 110.71367 515.01227 112.056816 513.3554 112.056816C511.69855 112.056816 510.3554 110.71367 510.3554 109.056816C510.3554 107.39996 511.69855 106.056816 513.3554 106.056816C515.01227 106.056816 516.3554 107.39996 516.3554 109.056816Z" fill-rule="nonzero"/><path fill="#000000" fill-opacity="0.0" clip-path="url(#id_0)" d="M529.9743 91.25626C529.9743 92.913124 528.63116 94.25626 526.9743 94.25626C525.31744 94.25626 523.9743 92.913124 523.9743 91.25626C523.9743 89.59941 525.31744 88.25626 526.9743 88.25626C528.63116 88.25626 529.9743 89.59941 529.9743 91.25626Z" fill-rule="nonzero"/><path fill="#000000" fill-opacity="0.0" clip-path="url(#id_0)" d="M543.59326 108.69902C543.59326 110.35587 542.2501 111.69902 540.59326 111.69902C538.9364 111.69902 537.59326 110.35587 537.59326 108.69902C537.59326 107.04216 538.9364 105.69902 540.59326 105.69902C542.2501 105.69902 543.59326 107.04216 543.59326 108.69902Z" fill-rule="nonzero"/><path fill="#000000" fill-opacity="0.0" clip-path="url(#id_0)" d="M557.21216 97.69666C557.21216 99.35352 555.869 100.69666 554.21216 100.69666C552.5553 100.69666 551.21216 99.35352 551.21216 97.69666C551.21216 96.03981 552.5553 94.69666 554.21216 94.69666C555.869 94.69666 557.21216 96.03981 557.21216 97.69666Z" fill-rule="nonzero"/><path fill="#000000" fill-opacity="0.0" clip-path="url(#id_0)" d="M570.83105 85.47183C570.83105 87.128685 569.4879 88.47183 567.83105 88.47183C566.17426 88.47183 564.83105 87.128685 564.83105 85.47183C564.83105 83.81498 566.17426 82.47183 567.83105 82.47183C569.4879 82.47183 570.83105 83.81498 570.83105 85.47183Z" fill-rule="nonzero"/><path fill="#000000" fill-opacity="0.0" clip-path="url(#id_0)" d="M584.45 86.873215C584.45 88.53007 583.1069 89.873215 581.45 89.873215C579.79315 89.873215 578.45 88.53007 578.45 86.873215C578.45 85.21636 579.79315 83.873215 581.45 83.873215C583.1069 83.873215 584.45 85.21636 584.45 86.873215Z" fill-rule="nonzero"/><path fill="#000000" d="M309.82812 349.45L309.82812 348.66876Q309.23438 349.59064 308.09375 349.59064Q307.34375 349.59064 306.71875 349.1844Q306.09375 348.7625 305.75 348.02814Q305.40625 347.29376 305.40625 346.34064Q305.40625 345.41876 305.71875 344.65314Q306.03125 343.8875 306.65625 343.4969Q307.28125 343.09064 308.04688 343.09064Q308.60938 343.09064 309.04688 343.325Q309.48438 343.5594 309.76562 343.9344L309.76562 340.85626L310.8125 340.85626L310.8125 349.45L309.82812 349.45ZM306.5 346.34064Q306.5 347.54376 307.0 348.1375Q307.5 348.71564 308.1875 348.71564Q308.875 348.71564 309.35938 348.15314Q309.84375 347.59064 309.84375 346.4344Q309.84375 345.15314 309.34375 344.5594Q308.85938 343.96564 308.14062 343.96564Q307.4375 343.96564 306.96875 344.54376Q306.5 345.10626 306.5 346.34064ZM316.85938 348.6844Q316.26562 349.1844 315.71875 349.3875Q315.1875 349.59064 314.5625 349.59064Q313.53125 349.59064 312.98438 349.09064Q312.4375 348.59064 312.4375 347.8094Q312.4375 347.35626 312.64062 346.98126Q312.84375 346.59064 313.1875 346.3719Q313.53125 346.1375 313.95312 346.02814Q314.25 345.9344 314.89062 345.85626Q316.15625 345.71564 316.76562 345.4969Q316.76562 345.27814 316.76562 345.23126Q316.76562 344.575 316.46875 344.3094Q316.0625 343.96564 315.26562 343.96564Q314.53125 343.96564 314.17188 344.23126Q313.8125 344.48126 313.64062 345.1375L312.60938 344.9969Q312.75 344.34064 313.07812 343.9344Q313.40625 343.52814 314.01562 343.3094Q314.625 343.09064 315.42188 343.09064Q316.21875 343.09064 316.71875 343.27814Q317.21875 343.46564 317.45312 343.7469Q317.6875 344.02814 317.78125 344.46564Q317.82812 344.73126 317.82812 345.4344L317.82812 346.84064Q317.82812 348.3094 317.89062 348.7Q317.96875 349.09064 318.17188 349.45L317.0625 349.45Q316.90625 349.1219 316.85938 348.6844ZM316.76562 346.325Q316.1875 346.5594 315.04688 346.73126Q314.39062 346.825 314.125 346.95Q313.85938 347.0594 313.70312 347.27814Q313.5625 347.4969 313.5625 347.77814Q313.5625 348.2 313.875 348.48126Q314.20312 348.7625 314.8125 348.7625Q315.42188 348.7625 315.89062 348.4969Q316.375 348.23126 316.59375 347.7625Q316.76562 347.40314 316.76562 346.71564L316.76562 346.325ZM322.09375 348.5125L322.25 349.4344Q321.79688 349.52814 321.45312 349.52814Q320.875 349.52814 320.5625 349.35626Q320.25 349.16876 320.10938 348.8719Q319.98438 348.575 319.98438 347.6219L319.98438 344.04376L319.21875 344.04376L319.21875 343.23126L319.98438 343.23126L319.98438 341.6844L321.03125 341.0594L321.03125 343.23126L322.09375 343.23126L322.09375 344.04376L321.03125 344.04376L321.03125 347.6844Q321.03125 348.1375 321.07812 348.2625Q321.14062 348.3875 321.26562 348.46564Q321.39062 348.54376 321.625 348.54376Q321.8125 348.54376 322.09375 348.5125ZM326.85938 348.6844Q326.26562 349.1844 325.71875 349.3875Q325.1875 349.59064 324.5625 349.59064Q323.53125 349.59064 322.98438 349.09064Q322.4375 348.59064 322.4375 347.8094Q322.4375 347.35626 322.64062 346.98126Q322.84375 346.59064 323.1875 346.3719Q323.53125 346.1375 323.95312 346.02814Q324.25 345.9344 324.89062 345.85626Q326.15625 345.71564 326.76562 345.4969Q326.76562 345.27814 326.76562 345.23126Q326.76562 344.575 326.46875 344.3094Q326.0625 343.96564 325.26562 343.96564Q324.53125 343.96564 324.17188 344.23126Q323.8125 344.48126 323.64062 345.1375L322.60938 344.9969Q322.75 344.34064 323.07812 343.9344Q323.40625 343.52814 324.01562 343.3094Q324.625 343.09064 325.42188 343.09064Q326.21875 343.09064 326.71875 343.27814Q327.21875 343.46564 327.45312 343.7469Q327.6875 344.02814 327.78125 344.46564Q327.82812 344.73126 327.82812 345.4344L327.82812 346.84064Q327.82812 348.3094 327.89062 348.7Q327.96875 349.09064 328.17188 349.45L327.0625 349.45Q326.90625 349.1219 326.85938 348.6844ZM326.76562 346.325Q326.1875 346.5594 325.04688 346.73126Q324.39062 346.825 324.125 346.95Q323.85938 347.0594 323.70312 347.27814Q323.5625 347.4969 323.5625 347.77814Q323.5625 348.2 323.875 348.48126Q324.20312 348.7625 324.8125 348.7625Q325.42188 348.7625 325.89062 348.4969Q326.375 348.23126 326.59375 347.7625Q326.76562 347.40314 326.76562 346.71564L326.76562 346.325ZM332.375 347.59064L333.40625 347.4344Q333.5 348.0594 333.89062 348.3875Q334.29688 348.71564 335.03125 348.71564Q335.75 348.71564 336.09375 348.4344Q336.45312 348.1375 336.45312 347.73126Q336.45312 347.3719 336.14062 347.16876Q335.92188 347.02814 335.0625 346.8094Q333.90625 346.5125 333.45312 346.3094Q333.01562 346.09064 332.78125 345.71564Q332.54688 345.34064 332.54688 344.8719Q332.54688 344.46564 332.73438 344.10626Q332.92188 343.7469 333.25 343.5125Q333.5 343.34064 333.92188 343.21564Q334.34375 343.09064 334.84375 343.09064Q335.5625 343.09064 336.10938 343.3094Q336.67188 343.5125 336.9375 343.8719Q337.20312 344.23126 337.29688 344.825L336.26562 344.96564Q336.20312 344.4969 335.85938 344.23126Q335.53125 343.95 334.90625 343.95Q334.1875 343.95 333.875 344.2Q333.5625 344.4344 333.5625 344.7625Q333.5625 344.96564 333.6875 345.1219Q333.82812 345.29376 334.09375 345.40314Q334.25 345.46564 335.03125 345.66876Q336.15625 345.98126 336.59375 346.16876Q337.03125 346.35626 337.28125 346.71564Q337.53125 347.075 337.53125 347.6219Q337.53125 348.15314 337.21875 348.6219Q336.92188 349.075 336.34375 349.34064Q335.76562 349.59064 335.03125 349.59064Q333.8125 349.59064 333.17188 349.09064Q332.54688 348.575 332.375 347.59064ZM338.79688 342.075L338.79688 340.85626L339.85938 340.85626L339.85938 342.075L338.79688 342.075ZM338.79688 349.45L338.79688 343.23126L339.85938 343.23126L339.85938 349.45L338.79688 349.45ZM341.23438 349.45L341.23438 348.59064L345.20312 344.04376Q344.51562 344.075 344.0 344.075L341.46875 344.075L341.46875 343.23126L346.5625 343.23126L346.5625 343.91876L343.1875 347.8719L342.53125 348.59064Q343.25 348.54376 343.85938 348.54376L346.75 348.54376L346.75 349.45L341.23438 349.45ZM352.04688 347.45L353.14062 347.575Q352.89062 348.52814 352.1875 349.0594Q351.48438 349.59064 350.40625 349.59064Q349.04688 349.59064 348.23438 348.7469Q347.4375 347.90314 347.4375 346.3875Q347.4375 344.825 348.25 343.96564Q349.0625 343.09064 350.34375 343.09064Q351.59375 343.09064 352.375 343.9344Q353.17188 344.77814 353.17188 346.325Q353.17188 346.41876 353.17188 346.60626L348.53125 346.60626Q348.59375 347.6375 349.10938 348.1844Q349.625 348.71564 350.40625 348.71564Q350.98438 348.71564 351.39062 348.41876Q351.8125 348.10626 352.04688 347.45ZM348.59375 345.7469L352.0625 345.7469Q352.0 344.95 351.67188 344.5594Q351.15625 343.95 350.35938 343.95Q349.625 343.95 349.125 344.4344Q348.64062 344.91876 348.59375 345.7469Z" fill-rule="nonzero"/><path fill="#000000" d="M27.550013 232.63646L27.675013 231.54271Q28.628138 231.79271 29.159388 232.49583Q29.690638 233.19896 29.690638 234.27708Q29.690638 235.63646 28.846888 236.44896Q28.003138 237.24583 26.487513 237.24583Q24.925013 237.24583 24.065638 236.43333Q23.190638 235.62083 23.190638 234.33958Q23.190638 233.08958 24.034388 232.30833Q24.878138 231.51146 26.425013 231.51146Q26.518763 231.51146 26.706263 231.51146L26.706263 236.15208Q27.737513 236.08958 28.284388 235.57396Q28.815638 235.05833 28.815638 234.27708Q28.815638 233.69896 28.518763 233.29271Q28.206263 232.87083 27.550013 232.63646ZM25.846888 236.08958L25.846888 232.62083Q25.050013 232.68333 24.659388 233.01146Q24.050013 233.52708 24.050013 234.32396Q24.050013 235.05833 24.534388 235.55833Q25.018763 236.04271 25.846888 236.08958ZM29.550013 229.91771L20.956263 229.91771L20.956263 228.85521L29.550013 228.85521L29.550013 229.91771ZM28.784388 222.82396Q29.284388 223.41771 29.487513 223.96458Q29.690638 224.49583 29.690638 225.12083Q29.690638 226.15208 29.190638 226.69896Q28.690638 227.24583 27.909388 227.24583Q27.456263 227.24583 27.081263 227.04271Q26.690638 226.83958 26.471888 226.49583Q26.237513 226.15208 26.128138 225.73021Q26.034388 225.43333 25.956263 224.79271Q25.815638 223.52708 25.596888 222.91771Q25.378138 222.91771 25.331263 222.91771Q24.675013 222.91771 24.409388 223.21458Q24.065638 223.62083 24.065638 224.41771Q24.065638 225.15208 24.331263 225.51146Q24.581263 225.87083 25.237513 226.04271L25.096888 227.07396Q24.440638 226.93333 24.034388 226.60521Q23.628138 226.27708 23.409388 225.66771Q23.190638 225.05833 23.190638 224.26146Q23.190638 223.46458 23.378138 222.96458Q23.565638 222.46458 23.846888 222.23021Q24.128138 221.99583 24.565638 221.90208Q24.831263 221.85521 25.534388 221.85521L26.940638 221.85521Q28.409388 221.85521 28.800013 221.79271Q29.190638 221.71458 29.550013 221.51146L29.550013 222.62083Q29.221888 222.77708 28.784388 222.82396ZM26.425013 222.91771Q26.659388 223.49583 26.831263 224.63646Q26.925013 225.29271 27.050013 225.55833Q27.159388 225.82396 27.378138 225.98021Q27.596888 226.12083 27.878138 226.12083Q28.300013 226.12083 28.581263 225.80833Q28.862513 225.48021 28.862513 224.87083Q28.862513 224.26146 28.596888 223.79271Q28.331263 223.30833 27.862513 223.08958Q27.503138 222.91771 26.815638 222.91771L26.425013 222.91771ZM31.940638 219.88646L23.331263 219.88646L23.331263 218.93333L24.128138 218.93333Q23.659388 218.58958 23.425013 218.16771Q23.190638 217.73021 23.190638 217.12083Q23.190638 216.32396 23.596888 215.71458Q24.003138 215.10521 24.753138 214.80833Q25.503138 214.49583 26.393763 214.49583Q27.346888 214.49583 28.112513 214.83958Q28.878138 215.16771 29.284388 215.82396Q29.690638 216.48021 29.690638 217.19896Q29.690638 217.73021 29.471888 218.15208Q29.237513 218.57396 28.909388 218.83958L31.940638 218.83958L31.940638 219.88646ZM26.471888 218.93333Q27.675013 218.93333 28.253138 218.44896Q28.815638 217.96458 28.815638 217.27708Q28.815638 216.57396 28.221888 216.07396Q27.628138 215.57396 26.378138 215.57396Q25.190638 215.57396 24.612513 216.05833Q24.018763 216.54271 24.018763 217.23021Q24.018763 217.90208 24.643763 218.41771Q25.268763 218.93333 26.471888 218.93333ZM27.690638 213.30833L27.534388 212.27708Q28.159388 212.18333 28.487513 211.79271Q28.815638 211.38646 28.815638 210.65208Q28.815638 209.93333 28.534388 209.58958Q28.237513 209.23021 27.831263 209.23021Q27.471888 209.23021 27.268763 209.54271Q27.128138 209.76146 26.909388 210.62083Q26.612513 211.77708 26.409388 212.23021Q26.190638 212.66771 25.815638 212.90208Q25.440638 213.13646 24.971888 213.13646Q24.565638 213.13646 24.206263 212.94896Q23.846888 212.76146 23.612513 212.43333Q23.440638 212.18333 23.315638 211.76146Q23.190638 211.33958 23.190638 210.83958Q23.190638 210.12083 23.409388 209.57396Q23.612513 209.01146 23.971888 208.74583Q24.331263 208.48021 24.925013 208.38646L25.065638 209.41771Q24.596888 209.48021 24.331263 209.82396Q24.050013 210.15208 24.050013 210.77708Q24.050013 211.49583 24.300013 211.80833Q24.534388 212.12083 24.862513 212.12083Q25.065638 212.12083 25.221888 211.99583Q25.393763 211.85521 25.503138 211.58958Q25.565638 211.43333 25.768763 210.65208Q26.081263 209.52708 26.268763 209.08958Q26.456263 208.65208 26.815638 208.40208Q27.175013 208.15208 27.721888 208.15208Q28.253138 208.15208 28.721888 208.46458Q29.175013 208.76146 29.440638 209.33958Q29.690638 209.91771 29.690638 210.65208Q29.690638 211.87083 29.190638 212.51146Q28.675013 213.13646 27.690638 213.30833ZM27.550013 202.63646L27.675013 201.54271Q28.628138 201.79271 29.159388 202.49583Q29.690638 203.19896 29.690638 204.27708Q29.690638 205.63646 28.846888 206.44896Q28.003138 207.24583 26.487513 207.24583Q24.925013 207.24583 24.065638 206.43333Q23.190638 205.62083 23.190638 204.33958Q23.190638 203.08958 24.034388 202.30833Q24.878138 201.51146 26.425013 201.51146Q26.518763 201.51146 26.706263 201.51146L26.706263 206.15208Q27.737513 206.08958 28.284388 205.57396Q28.815638 205.05833 28.815638 204.27708Q28.815638 203.69896 28.518763 203.29271Q28.206263 202.87083 27.550013 202.63646ZM25.846888 206.08958L25.846888 202.62083Q25.050013 202.68333 24.659388 203.01146Q24.050013 203.52708 24.050013 204.32396Q24.050013 205.05833 24.534388 205.55833Q25.018763 206.04271 25.846888 206.08958ZM29.550013 195.85521L28.768763 195.85521Q29.690638 196.44896 29.690638 197.58958Q29.690638 198.33958 29.284388 198.96458Q28.862513 199.58958 28.128138 199.93333Q27.393763 200.27708 26.440638 200.27708Q25.518763 200.27708 24.753138 199.96458Q23.987513 199.65208 23.596888 199.02708Q23.190638 198.40208 23.190638 197.63646Q23.190638 197.07396 23.425013 196.63646Q23.659388 196.19896 24.034388 195.91771L20.956263 195.91771L20.956263 194.87083L29.550013 194.87083L29.550013 195.85521ZM26.440638 199.18333Q27.643763 199.18333 28.237513 198.68333Q28.815638 198.18333 28.815638 197.49583Q28.815638 196.80833 28.253138 196.32396Q27.690638 195.83958 26.534388 195.83958Q25.253138 195.83958 24.659388 196.33958Q24.065638 196.82396 24.065638 197.54271Q24.065638 198.24583 24.643763 198.71458Q25.206263 199.18333 26.440638 199.18333ZM28.612513 187.58958L29.534388 187.43333Q29.628138 187.88646 29.628138 188.23021Q29.628138 188.80833 29.456263 189.12083Q29.268763 189.43333 28.971888 189.57396Q28.675013 189.69896 27.721888 189.69896L24.143763 189.69896L24.143763 190.46458L23.331263 190.46458L23.331263 189.69896L21.784388 189.69896L21.159388 188.65208L23.331263 188.65208L23.331263 187.58958L24.143763 187.58958L24.143763 188.65208L27.784388 188.65208Q28.237513 188.65208 28.362513 188.60521Q28.487513 188.54271 28.565638 188.41771Q28.643763 188.29271 28.643763 188.05833Q28.643763 187.87083 28.612513 187.58958ZM22.175013 186.88646L20.956263 186.88646L20.956263 185.82396L22.175013 185.82396L22.175013 186.88646ZM29.550013 186.88646L23.331263 186.88646L23.331263 185.82396L29.550013 185.82396L29.550013 186.88646ZM29.550013 183.88646L23.331263 183.88646L23.331263 182.94896L24.206263 182.94896Q23.737513 182.65208 23.471888 182.16771Q23.190638 181.68333 23.190638 181.05833Q23.190638 180.37083 23.471888 179.93333Q23.753138 179.48021 24.268763 179.30833Q23.190638 178.55833 23.190638 177.38646Q23.190638 176.44896 23.706263 175.96458Q24.206263 175.46458 25.284388 175.46458L29.550013 175.46458L29.550013 176.51146L25.628138 176.51146Q25.003138 176.51146 24.721888 176.62083Q24.440638 176.71458 24.268763 176.98021Q24.096888 177.24583 24.096888 177.62083Q24.096888 178.27708 24.534388 178.71458Q24.971888 179.13646 25.940638 179.13646L29.550013 179.13646L29.550013 180.19896L25.503138 180.19896Q24.800013 180.19896 24.456263 180.46458Q24.096888 180.71458 24.096888 181.29271Q24.096888 181.74583 24.331263 182.12083Q24.565638 182.49583 25.018763 182.66771Q25.471888 182.83958 26.315638 182.83958L29.550013 182.83958L29.550013 183.88646ZM27.550013 169.63646L27.675013 168.54271Q28.628138 168.79271 29.159388 169.49583Q29.690638 170.19896 29.690638 171.27708Q29.690638 172.63646 28.846888 173.44896Q28.003138 174.24583 26.487513 174.24583Q24.925013 174.24583 24.065638 173.43333Q23.190638 172.62083 23.190638 171.33958Q23.190638 170.08958 24.034388 169.30833Q24.878138 168.51146 26.425013 168.51146Q26.518763 168.51146 26.706263 168.51146L26.706263 173.15208Q27.737513 173.08958 28.284388 172.57396Q28.815638 172.05833 28.815638 171.27708Q28.815638 170.69896 28.518763 170.29271Q28.206263 169.87083 27.550013 169.63646ZM25.846888 173.08958L25.846888 169.62083Q25.050013 169.68333 24.659388 170.01146Q24.050013 170.52708 24.050013 171.32396Q24.050013 172.05833 24.534388 172.55833Q25.018763 173.04271 25.846888 173.08958ZM32.08126 161.87083Q30.971888 162.74583 29.503138 163.35521Q28.018763 163.94896 26.440638 163.94896Q25.050013 163.94896 23.768763 163.51146Q22.284388 162.98021 20.815638 161.87083L20.815638 161.12083Q22.034388 161.82396 22.550013 162.05833Q23.362513 162.41771 24.237513 162.62083Q25.331263 162.87083 26.440638 162.87083Q29.268763 162.87083 32.08126 161.12083L32.08126 161.87083ZM27.690638 160.30833L27.534388 159.27708Q28.159388 159.18333 28.487513 158.79271Q28.815638 158.38646 28.815638 157.65208Q28.815638 156.93333 28.534388 156.58958Q28.237513 156.23021 27.831263 156.23021Q27.471888 156.23021 27.268763 156.54271Q27.128138 156.76146 26.909388 157.62083Q26.612513 158.77708 26.409388 159.23021Q26.190638 159.66771 25.815638 159.90208Q25.440638 160.13646 24.971888 160.13646Q24.565638 160.13646 24.206263 159.94896Q23.846888 159.76146 23.612513 159.43333Q23.440638 159.18333 23.315638 158.76146Q23.190638 158.33958 23.190638 157.83958Q23.190638 157.12083 23.409388 156.57396Q23.612513 156.01146 23.971888 155.74583Q24.331263 155.48021 24.925013 155.38646L25.065638 156.41771Q24.596888 156.48021 24.331263 156.82396Q24.050013 157.15208 24.050013 157.77708Q24.050013 158.49583 24.300013 158.80833Q24.534388 159.12083 24.862513 159.12083Q25.065638 159.12083 25.221888 158.99583Q25.393763 158.85521 25.503138 158.58958Q25.565638 158.43333 25.768763 157.65208Q26.081263 156.52708 26.268763 156.08958Q26.456263 155.65208 26.815638 155.40208Q27.175013 155.15208 27.721888 155.15208Q28.253138 155.15208 28.721888 155.46458Q29.175013 155.76146 29.440638 156.33958Q29.690638 156.91771 29.690638 157.65208Q29.690638 158.87083 29.190638 159.51146Q28.675013 160.13646 27.690638 160.30833ZM27.550013 149.63646L27.675013 148.54271Q28.628138 148.79271 29.159388 149.49583Q29.690638 150.19896 29.690638 151.27708Q29.690638 152.63646 28.846888 153.44896Q28.003138 154.24583 26.487513 154.24583Q24.925013 154.24583 24.065638 153.43333Q23.190638 152.62083 23.190638 151.33958Q23.190638 150.08958 24.034388 149.30833Q24.878138 148.51146 26.425013 148.51146Q26.518763 148.51146 26.706263 148.51146L26.706263 153.15208Q27.737513 153.08958 28.284388 152.57396Q28.815638 152.05833 28.815638 151.27708Q28.815638 150.69896 28.518763 150.29271Q28.206263 149.87083 27.550013 149.63646ZM25.846888 153.08958L25.846888 149.62083Q25.050013 149.68333 24.659388 150.01146Q24.050013 150.52708 24.050013 151.32396Q24.050013 152.05833 24.534388 152.55833Q25.018763 153.04271 25.846888 153.08958ZM27.268763 142.82396L27.409388 141.79271Q28.471888 141.96458 29.081263 142.66771Q29.690638 143.37083 29.690638 144.38646Q29.690638 145.66771 28.862513 146.44896Q28.018763 147.21458 26.456263 147.21458Q25.456263 147.21458 24.706263 146.88646Q23.940638 146.54271 23.565638 145.87083Q23.190638 145.18333 23.190638 144.37083Q23.190638 143.37083 23.706263 142.73021Q24.206263 142.07396 25.159388 141.88646L25.315638 142.91771Q24.690638 143.05833 24.378138 143.43333Q24.050013 143.80833 24.050013 144.33958Q24.050013 145.13646 24.628138 145.63646Q25.190638 146.13646 26.425013 146.13646Q27.690638 146.13646 28.253138 145.65208Q28.815638 145.16771 28.815638 144.40208Q28.815638 143.77708 28.440638 143.37083Q28.065638 142.94896 27.268763 142.82396ZM32.08126 140.19896L32.08126 140.94896Q29.268763 139.19896 26.440638 139.19896Q25.346888 139.19896 24.253138 139.44896Q23.378138 139.65208 22.565638 140.01146Q22.050013 140.24583 20.815638 140.94896L20.815638 140.19896Q22.284388 139.10521 23.768763 138.57396Q25.050013 138.12083 26.440638 138.12083Q28.018763 138.12083 29.503138 138.73021Q30.971888 139.33958 32.08126 140.19896Z" fill-rule="nonzero"/><path fill="#000000" d="M65.05 300.21564Q65.05 298.6844 65.3625 297.7625Q65.675 296.825 66.28438 296.325Q66.90938 295.825 67.84688 295.825Q68.53438 295.825 69.05 296.10626Q69.58125 296.3875 69.925 296.91876Q70.26875 297.4344 70.45625 298.1844Q70.64375 298.9344 70.64375 300.21564Q70.64375 301.73126 70.33125 302.65314Q70.03438 303.575 69.40938 304.09064Q68.8 304.59064 67.84688 304.59064Q66.6125 304.59064 65.89375 303.7Q65.05 302.6375 65.05 300.21564ZM66.12813 300.21564Q66.12813 302.325 66.62813 303.02814Q67.12813 303.73126 67.84688 303.73126Q68.58125 303.73126 69.06563 303.02814Q69.56563 302.325 69.56563 300.21564Q69.56563 298.09064 69.06563 297.40314Q68.58125 296.7 67.83125 296.7Q67.1125 296.7 66.675 297.3094Q66.12813 298.09064 66.12813 300.21564Z" fill-rule="nonzero"/><path fill="#000000" d="M70.59688 243.80104L70.59688 244.81667L64.90938 244.81667Q64.90938 244.44167 65.03438 244.08229Q65.25313 243.50417 65.72188 242.94167Q66.20625 242.37917 67.1125 241.64479Q68.51875 240.48854 69.00313 239.81667Q69.50313 239.14479 69.50313 238.55104Q69.50313 237.92604 69.05 237.50417Q68.59688 237.06667 67.87813 237.06667Q67.1125 237.06667 66.65938 237.51979Q66.20625 237.97292 66.19063 238.78542L65.1125 238.67604Q65.22188 237.45729 65.94063 236.83229Q66.675 236.19167 67.90938 236.19167Q69.14375 236.19167 69.8625 236.87917Q70.58125 237.56667 70.58125 238.58229Q70.58125 239.09792 70.3625 239.59792Q70.15938 240.08229 69.65938 240.64479Q69.175 241.19167 68.05 242.14479Q67.09688 242.94167 66.81563 243.23854Q66.55 243.51979 66.37813 243.80104L70.59688 243.80104Z" fill-rule="nonzero"/><path fill="#000000" d="M68.425 185.18333L68.425 183.12083L64.70625 183.12083L64.70625 182.15208L68.62813 176.58958L69.4875 176.58958L69.4875 182.15208L70.64375 182.15208L70.64375 183.12083L69.4875 183.12083L69.4875 185.18333L68.425 185.18333ZM68.425 182.15208L68.425 178.29271L65.7375 182.15208L68.425 182.15208Z" fill-rule="nonzero"/><path fill="#000000" d="M70.51875 119.06563L69.47188 119.14375Q69.33125 118.51875 69.08125 118.2375Q68.64375 117.78438 68.01875 117.78438Q67.51875 117.78438 67.12813 118.06563Q66.64375 118.44063 66.34688 119.14375Q66.06563 119.83125 66.05 121.1125Q66.425 120.53438 66.97188 120.25313Q67.53438 119.97188 68.14375 119.97188Q69.19063 119.97188 69.925 120.75313Q70.675 121.53438 70.675 122.75313Q70.675 123.56563 70.31563 124.26875Q69.97188 124.95625 69.3625 125.33125Q68.75313 125.69063 67.9875 125.69063Q66.65938 125.69063 65.83125 124.72188Q65.00313 123.75313 65.00313 121.53438Q65.00313 119.03438 65.925 117.90938Q66.72188 116.925 68.08125 116.925Q69.09688 116.925 69.7375 117.50313Q70.39375 118.06563 70.51875 119.06563ZM66.22188 122.76875Q66.22188 123.31563 66.44063 123.81563Q66.675 124.3 67.08125 124.56563Q67.50313 124.83125 67.97188 124.83125Q68.62813 124.83125 69.1125 124.3Q69.59688 123.75313 69.59688 122.83125Q69.59688 121.94063 69.1125 121.425Q68.64375 120.90938 67.925 120.90938Q67.20625 120.90938 66.70625 121.425Q66.22188 121.94063 66.22188 122.76875Z" fill-rule="nonzero"/><path fill="#000000" d="M66.675 61.260414Q66.01875 61.010414 65.69063 60.572914Q65.37813 60.11979 65.37813 59.510414Q65.37813 58.572914 66.05 57.93229Q66.7375 57.291664 67.84688 57.291664Q68.97188 57.291664 69.65938 57.947914Q70.34688 58.604164 70.34688 59.541664Q70.34688 60.135414 70.03438 60.572914Q69.72188 61.010414 69.08125 61.260414Q69.87813 61.510414 70.28438 62.08854Q70.69063 62.666664 70.69063 63.46354Q70.69063 64.55729 69.90938 65.30729Q69.14375 66.05729 67.8625 66.05729Q66.59688 66.05729 65.81563 65.30729Q65.03438 64.55729 65.03438 63.43229Q65.03438 62.58854 65.45625 62.02604Q65.89375 61.46354 66.675 61.260414ZM66.45625 59.46354Q66.45625 60.072914 66.84688 60.46354Q67.25313 60.854164 67.87813 60.854164Q68.4875 60.854164 68.87813 60.479164Q69.26875 60.08854 69.26875 59.52604Q69.26875 58.947914 68.8625 58.55729Q68.45625 58.15104 67.8625 58.15104Q67.25313 58.15104 66.84688 58.541664Q66.45625 58.93229 66.45625 59.46354ZM66.12813 63.43229Q66.12813 63.885414 66.33125 64.30729Q66.55 64.729164 66.97188 64.96354Q67.39375 65.197914 67.87813 65.197914Q68.62813 65.197914 69.1125 64.71354Q69.6125 64.229164 69.6125 63.479164Q69.6125 62.71354 69.1125 62.21354Q68.6125 61.71354 67.84688 61.71354Q67.09688 61.71354 66.6125 62.21354Q66.12813 62.697914 66.12813 63.43229Z" fill-rule="nonzero"/><path fill="#000000" d="M111.52567 315.2L112.63505 315.10626Q112.76005 315.91876 113.19755 316.325Q113.65067 316.73126 114.2913 316.73126Q115.0413 316.73126 115.57255 316.15314Q116.1038 315.575 116.1038 314.6375Q116.1038 313.73126 115.58817 313.21564Q115.08817 312.6844 114.26005 312.6844Q113.76005 312.6844 113.33817 312.91876Q112.93192 313.15314 112.69755 313.5125L111.71317 313.3875L112.5413 308.98126L116.82255 308.98126L116.82255 309.98126L113.38505 309.98126L112.93192 312.29376Q113.69755 311.7469 114.5413 311.7469Q115.6663 311.7469 116.43192 312.52814Q117.21317 313.3094 117.21317 314.54376Q117.21317 315.7 116.5413 316.5594Q115.71317 317.59064 114.2913 317.59064Q113.11942 317.59064 112.36942 316.9344Q111.63505 316.27814 111.52567 315.2ZM118.52567 313.21564Q118.52567 311.6844 118.83817 310.7625Q119.15067 309.825 119.76005 309.325Q120.38505 308.825 121.32255 308.825Q122.01005 308.825 122.52567 309.10626Q123.05692 309.3875 123.40067 309.91876Q123.74442 310.4344 123.93192 311.1844Q124.11942 311.9344 124.11942 313.21564Q124.11942 314.73126 123.80692 315.65314Q123.51005 316.575 122.88505 317.09064Q122.27567 317.59064 121.32255 317.59064Q120.08817 317.59064 119.36942 316.7Q118.52567 315.6375 118.52567 313.21564ZM119.6038 313.21564Q119.6038 315.325 120.1038 316.02814Q120.6038 316.73126 121.32255 316.73126Q122.05692 316.73126 122.5413 316.02814Q123.0413 315.325 123.0413 313.21564Q123.0413 311.09064 122.5413 310.40314Q122.05692 309.7 121.30692 309.7Q120.58817 309.7 120.15067 310.3094Q119.6038 311.09064 119.6038 313.21564ZM125.52567 313.21564Q125.52567 311.6844 125.83817 310.7625Q126.15067 309.825 126.76005 309.325Q127.38505 308.825 128.32254 308.825Q129.01004 308.825 129.52567 309.10626Q130.05692 309.3875 130.40067 309.91876Q130.74442 310.4344 130.93192 311.1844Q131.11942 311.9344 131.11942 313.21564Q131.11942 314.73126 130.80692 315.65314Q130.51004 316.575 129.88504 317.09064Q129.27567 317.59064 128.32254 317.59064Q127.08817 317.59064 126.36942 316.7Q125.52567 315.6375 125.52567 313.21564ZM126.6038 313.21564Q126.6038 315.325 127.1038 316.02814Q127.6038 316.73126 128.32254 316.73126Q129.05692 316.73126 129.54129 316.02814Q130.04129 315.325 130.04129 313.21564Q130.04129 311.09064 129.54129 310.40314Q129.05692 309.7 128.30692 309.7Q127.58817 309.7 127.15067 310.3094Q126.6038 311.09064 126.6038 313.21564ZM132.52567 313.21564Q132.52567 311.6844 132.83817 310.7625Q133.15067 309.825 133.76004 309.325Q134.38504 308.825 135.32254 308.825Q136.01004 308.825 136.52567 309.10626Q137.05692 309.3875 137.40067 309.91876Q137.74442 310.4344 137.93192 311.1844Q138.11942 311.9344 138.11942 313.21564Q138.11942 314.73126 137.80692 315.65314Q137.51004 316.575 136.88504 317.09064Q136.27567 317.59064 135.32254 317.59064Q134.08817 317.59064 133.36942 316.7Q132.52567 315.6375 132.52567 313.21564ZM133.60379 313.21564Q133.60379 315.325 134.10379 316.02814Q134.60379 316.73126 135.32254 316.73126Q136.05692 316.73126 136.54129 316.02814Q137.04129 315.325 137.04129 313.21564Q137.04129 311.09064 136.54129 310.40314Q136.05692 309.7 135.30692 309.7Q134.58817 309.7 134.15067 310.3094Q133.60379 311.09064 133.60379 313.21564ZM139.52567 313.21564Q139.52567 311.6844 139.83817 310.7625Q140.15067 309.825 140.76004 309.325Q141.38504 308.825 142.32254 308.825Q143.01004 308.825 143.52567 309.10626Q144.05692 309.3875 144.40067 309.91876Q144.74442 310.4344 144.93192 311.1844Q145.11942 311.9344 145.11942 313.21564Q145.11942 314.73126 144.80692 315.65314Q144.51004 316.575 143.88504 317.09064Q143.27567 317.59064 142.32254 317.59064Q141.08817 317.59064 140.36942 316.7Q139.52567 315.6375 139.52567 313.21564ZM140.60379 313.21564Q140.60379 315.325 141.10379 316.02814Q141.60379 316.73126 142.32254 316.73126Q143.05692 316.73126 143.54129 316.02814Q144.04129 315.325 144.04129 313.21564Q144.04129 311.09064 143.54129 310.40314Q143.05692 309.7 142.30692 309.7Q141.58817 309.7 141.15067 310.3094Q140.60379 311.09064 140.60379 313.21564ZM146.52567 313.21564Q146.52567 311.6844 146.83817 310.7625Q147.15067 309.825 147.76004 309.325Q148.38504 308.825 149.32254 308.825Q150.01004 308.825 150.52567 309.10626Q151.05692 309.3875 151.40067 309.91876Q151.74442 310.4344 151.93192 311.1844Q152.11942 311.9344 152.11942 313.21564Q152.11942 314.73126 151.80692 315.65314Q151.51004 316.575 150.88504 317.09064Q150.27567 317.59064 149.32254 317.59064Q148.08817 317.59064 147.36942 316.7Q146.52567 315.6375 146.52567 313.21564ZM147.60379 313.21564Q147.60379 315.325 148.10379 316.02814Q148.60379 316.73126 149.32254 316.73126Q150.05692 316.73126 150.54129 316.02814Q151.04129 315.325 151.04129 313.21564Q151.04129 311.09064 150.54129 310.40314Q150.05692 309.7 149.30692 309.7Q148.58817 309.7 148.15067 310.3094Q147.60379 311.09064 147.60379 313.21564Z" fill-rule="nonzero"/><path fill="#000000" d="M180.08902 317.45L179.04214 317.45L179.04214 310.73126Q178.65152 311.09064 178.02652 311.46564Q177.41714 311.825 176.93277 311.9969L176.93277 310.98126Q177.80777 310.5594 178.46402 309.98126Q179.1359 309.3875 179.41714 308.825L180.08902 308.825L180.08902 317.45ZM183.12027 313.21564Q183.12027 311.6844 183.43277 310.7625Q183.74527 309.825 184.35464 309.325Q184.97964 308.825 185.91714 308.825Q186.60464 308.825 187.12027 309.10626Q187.65152 309.3875 187.99527 309.91876Q188.33902 310.4344 188.52652 311.1844Q188.71402 311.9344 188.71402 313.21564Q188.71402 314.73126 188.40152 315.65314Q188.10464 316.575 187.47964 317.09064Q186.87027 317.59064 185.91714 317.59064Q184.68277 317.59064 183.96402 316.7Q183.12027 315.6375 183.12027 313.21564ZM184.1984 313.21564Q184.1984 315.325 184.6984 316.02814Q185.1984 316.73126 185.91714 316.73126Q186.65152 316.73126 187.1359 316.02814Q187.6359 315.325 187.6359 313.21564Q187.6359 311.09064 187.1359 310.40314Q186.65152 309.7 185.90152 309.7Q185.18277 309.7 184.74527 310.3094Q184.1984 311.09064 184.1984 313.21564ZM190.12027 313.21564Q190.12027 311.6844 190.43277 310.7625Q190.74527 309.825 191.35464 309.325Q191.97964 308.825 192.91714 308.825Q193.60464 308.825 194.12027 309.10626Q194.65152 309.3875 194.99527 309.91876Q195.33902 310.4344 195.52652 311.1844Q195.71402 311.9344 195.71402 313.21564Q195.71402 314.73126 195.40152 315.65314Q195.10464 316.575 194.47964 317.09064Q193.87027 317.59064 192.91714 317.59064Q191.68277 317.59064 190.96402 316.7Q190.12027 315.6375 190.12027 313.21564ZM191.1984 313.21564Q191.1984 315.325 191.6984 316.02814Q192.1984 316.73126 192.91714 316.73126Q193.65152 316.73126 194.1359 316.02814Q194.6359 315.325 194.6359 313.21564Q194.6359 311.09064 194.1359 310.40314Q193.65152 309.7 192.90152 309.7Q192.18277 309.7 191.74527 310.3094Q191.1984 311.09064 191.1984 313.21564ZM197.12027 313.21564Q197.12027 311.6844 197.43277 310.7625Q197.74527 309.825 198.35464 309.325Q198.97964 308.825 199.91714 308.825Q200.60464 308.825 201.12027 309.10626Q201.65152 309.3875 201.99527 309.91876Q202.33902 310.4344 202.52652 311.1844Q202.71402 311.9344 202.71402 313.21564Q202.71402 314.73126 202.40152 315.65314Q202.10464 316.575 201.47964 317.09064Q200.87027 317.59064 199.91714 317.59064Q198.68277 317.59064 197.96402 316.7Q197.12027 315.6375 197.12027 313.21564ZM198.1984 313.21564Q198.1984 315.325 198.6984 316.02814Q199.1984 316.73126 199.91714 316.73126Q200.65152 316.73126 201.1359 316.02814Q201.6359 315.325 201.6359 313.21564Q201.6359 311.09064 201.1359 310.40314Q200.65152 309.7 199.90152 309.7Q199.18277 309.7 198.74527 310.3094Q198.1984 311.09064 198.1984 313.21564ZM204.12027 313.21564Q204.12027 311.6844 204.43277 310.7625Q204.74527 309.825 205.35464 309.325Q205.97964 308.825 206.91714 308.825Q207.60464 308.825 208.12027 309.10626Q208.65152 309.3875 208.99527 309.91876Q209.33902 310.4344 209.52652 311.1844Q209.71402 311.9344 209.71402 313.21564Q209.71402 314.73126 209.40152 315.65314Q209.10464 316.575 208.47964 317.09064Q207.87027 317.59064 206.91714 317.59064Q205.68277 317.59064 204.96402 316.7Q204.12027 315.6375 204.12027 313.21564ZM205.1984 313.21564Q205.1984 315.325 205.6984 316.02814Q206.1984 316.73126 206.91714 316.73126Q207.65152 316.73126 208.1359 316.02814Q208.6359 315.325 208.6359 313.21564Q208.6359 311.09064 208.1359 310.40314Q207.65152 309.7 206.90152 309.7Q206.18277 309.7 205.74527 310.3094Q205.1984 311.09064 205.1984 313.21564ZM211.12027 313.21564Q211.12027 311.6844 211.43277 310.7625Q211.74527 309.825 212.35464 309.325Q212.97964 308.825 213.91714 308.825Q214.60464 308.825 215.12027 309.10626Q215.65152 309.3875 215.99527 309.91876Q216.33902 310.4344 216.52652 311.1844Q216.71402 311.9344 216.71402 313.21564Q216.71402 314.73126 216.40152 315.65314Q216.10464 316.575 215.47964 317.09064Q214.87027 317.59064 213.91714 317.59064Q212.68277 317.59064 211.96402 316.7Q211.12027 315.6375 211.12027 313.21564ZM212.1984 313.21564Q212.1984 315.325 212.6984 316.02814Q213.1984 316.73126 213.91714 316.73126Q214.65152 316.73126 215.1359 316.02814Q215.6359 315.325 215.6359 313.21564Q215.6359 311.09064 215.1359 310.40314Q214.65152 309.7 213.90152 309.7Q213.18277 309.7 212.74527 310.3094Q212.1984 311.09064 212.1984 313.21564ZM218.12027 313.21564Q218.12027 311.6844 218.43277 310.7625Q218.74527 309.825 219.35464 309.325Q219.97964 308.825 220.91714 308.825Q221.60464 308.825 222.12027 309.10626Q222.65152 309.3875 222.99527 309.91876Q223.33902 310.4344 223.52652 311.1844Q223.71402 311.9344 223.71402 313.21564Q223.71402 314.73126 223.40152 315.65314Q223.10464 316.575 222.47964 317.09064Q221.87027 317.59064 220.91714 317.59064Q219.68277 317.59064 218.96402 316.7Q218.12027 315.6375 218.12027 313.21564ZM219.1984 313.21564Q219.1984 315.325 219.6984 316.02814Q220.1984 316.73126 220.91714 316.73126Q221.65152 316.73126 222.1359 316.02814Q222.6359 315.325 222.6359 313.21564Q222.6359 311.09064 222.1359 310.40314Q221.65152 309.7 220.90152 309.7Q220.18277 309.7 219.74527 310.3094Q219.1984 311.09064 219.1984 313.21564Z" fill-rule="nonzero"/><path fill="#000000" d="M248.18361 317.45L247.13673 317.45L247.13673 310.73126Q246.74611 311.09064 246.12111 311.46564Q245.51173 311.825 245.02736 311.9969L245.02736 310.98126Q245.90236 310.5594 246.55861 309.98126Q247.23048 309.3875 247.51173 308.825L248.18361 308.825L248.18361 317.45ZM251.21486 315.2L252.32423 315.10626Q252.44923 315.91876 252.88673 316.325Q253.33986 316.73126 253.98048 316.73126Q254.73048 316.73126 255.26173 316.15314Q255.79298 315.575 255.79298 314.6375Q255.79298 313.73126 255.27736 313.21564Q254.77736 312.6844 253.94923 312.6844Q253.44923 312.6844 253.02736 312.91876Q252.62111 313.15314 252.38673 313.5125L251.40236 313.3875L252.23048 308.98126L256.51172 308.98126L256.51172 309.98126L253.07423 309.98126L252.62111 312.29376Q253.38673 311.7469 254.23048 311.7469Q255.35548 311.7469 256.1211 312.52814Q256.90234 313.3094 256.90234 314.54376Q256.90234 315.7 256.23047 316.5594Q255.40236 317.59064 253.98048 317.59064Q252.80861 317.59064 252.05861 316.9344Q251.32423 316.27814 251.21486 315.2ZM258.21484 313.21564Q258.21484 311.6844 258.52734 310.7625Q258.83984 309.825 259.44922 309.325Q260.07422 308.825 261.01172 308.825Q261.69922 308.825 262.21484 309.10626Q262.7461 309.3875 263.08984 309.91876Q263.4336 310.4344 263.6211 311.1844Q263.8086 311.9344 263.8086 313.21564Q263.8086 314.73126 263.4961 315.65314Q263.19922 316.575 262.57422 317.09064Q261.96484 317.59064 261.01172 317.59064Q259.77734 317.59064 259.0586 316.7Q258.21484 315.6375 258.21484 313.21564ZM259.29297 313.21564Q259.29297 315.325 259.79297 316.02814Q260.29297 316.73126 261.01172 316.73126Q261.7461 316.73126 262.23047 316.02814Q262.73047 315.325 262.73047 313.21564Q262.73047 311.09064 262.23047 310.40314Q261.7461 309.7 260.9961 309.7Q260.27734 309.7 259.83984 310.3094Q259.29297 311.09064 259.29297 313.21564ZM265.21484 313.21564Q265.21484 311.6844 265.52734 310.7625Q265.83984 309.825 266.44922 309.325Q267.07422 308.825 268.01172 308.825Q268.69922 308.825 269.21484 309.10626Q269.7461 309.3875 270.08984 309.91876Q270.4336 310.4344 270.6211 311.1844Q270.8086 311.9344 270.8086 313.21564Q270.8086 314.73126 270.4961 315.65314Q270.19922 316.575 269.57422 317.09064Q268.96484 317.59064 268.01172 317.59064Q266.77734 317.59064 266.0586 316.7Q265.21484 315.6375 265.21484 313.21564ZM266.29297 313.21564Q266.29297 315.325 266.79297 316.02814Q267.29297 316.73126 268.01172 316.73126Q268.7461 316.73126 269.23047 316.02814Q269.73047 315.325 269.73047 313.21564Q269.73047 311.09064 269.23047 310.40314Q268.7461 309.7 267.9961 309.7Q267.27734 309.7 266.83984 310.3094Q266.29297 311.09064 266.29297 313.21564ZM272.21484 313.21564Q272.21484 311.6844 272.52734 310.7625Q272.83984 309.825 273.44922 309.325Q274.07422 308.825 275.01172 308.825Q275.69922 308.825 276.21484 309.10626Q276.7461 309.3875 277.08984 309.91876Q277.4336 310.4344 277.6211 311.1844Q277.8086 311.9344 277.8086 313.21564Q277.8086 314.73126 277.4961 315.65314Q277.19922 316.575 276.57422 317.09064Q275.96484 317.59064 275.01172 317.59064Q273.77734 317.59064 273.0586 316.7Q272.21484 315.6375 272.21484 313.21564ZM273.29297 313.21564Q273.29297 315.325 273.79297 316.02814Q274.29297 316.73126 275.01172 316.73126Q275.7461 316.73126 276.23047 316.02814Q276.73047 315.325 276.73047 313.21564Q276.73047 311.09064 276.23047 310.40314Q275.7461 309.7 274.9961 309.7Q274.27734 309.7 273.83984 310.3094Q273.29297 311.09064 273.29297 313.21564ZM279.21484 313.21564Q279.21484 311.6844 279.52734 310.7625Q279.83984 309.825 280.44922 309.325Q281.07422 308.825 282.01172 308.825Q282.69922 308.825 283.21484 309.10626Q283.7461 309.3875 284.08984 309.91876Q284.4336 310.4344 284.6211 311.1844Q284.8086 311.9344 284.8086 313.21564Q284.8086 314.73126 284.4961 315.65314Q284.19922 316.575 283.57422 317.09064Q282.96484 317.59064 282.01172 317.59064Q280.77734 317.59064 280.0586 316.7Q279.21484 315.6375 279.21484 313.21564ZM280.29297 313.21564Q280.29297 315.325 280.79297 316.02814Q281.29297 316.73126 282.01172 316.73126Q282.7461 316.73126 283.23047 316.02814Q283.73047 315.325 283.73047 313.21564Q283.73047 311.09064 283.23047 310.40314Q282.7461 309.7 281.9961 309.7Q281.27734 309.7 280.83984 310.3094Q280.29297 311.09064 280.29297 313.21564ZM286.21484 313.21564Q286.21484 311.6844 286.52734 310.7625Q286.83984 309.825 287.44922 309.325Q288.07422 308.825 289.01172 308.825Q289.69922 308.825 290.21484 309.10626Q290.7461 309.3875 291.08984 309.91876Q291.4336 310.4344 291.6211 311.1844Q291.8086 311.9344 291.8086 313.21564Q291.8086 314.73126 291.4961 315.65314Q291.19922 316.575 290.57422 317.09064Q289.96484 317.59064 289.01172 317.59064Q287.77734 317.59064 287.0586 316.7Q286.21484 315.6375 286.21484 313.21564ZM287.29297 313.21564Q287.29297 315.325 287.79297 316.02814Q288.29297 316.73126 289.01172 316.73126Q289.7461 316.73126 290.23047 316.02814Q290.73047 315.325 290.73047 313.21564Q290.73047 311.09064 290.23047 310.40314Q289.7461 309.7 288.9961 309.7Q288.27734 309.7 287.83984 310.3094Q287.29297 311.09064 287.29297 313.21564Z" fill-rule="nonzero"/><path fill="#000000" d="M317.85632 316.4344L317.85632 317.45L312.16882 317.45Q312.16882 317.075 312.29382 316.71564Q312.51257 316.1375 312.98132 315.575Q313.4657 315.0125 314.37195 314.27814Q315.7782 313.1219 316.26257 312.45Q316.76257 311.77814 316.76257 311.1844Q316.76257 310.5594 316.30945 310.1375Q315.85632 309.7 315.13757 309.7Q314.37195 309.7 313.91882 310.15314Q313.4657 310.60626 313.45007 311.41876L312.37195 311.3094Q312.48132 310.09064 313.20007 309.46564Q313.93445 308.825 315.16882 308.825Q316.4032 308.825 317.12195 309.5125Q317.8407 310.2 317.8407 311.21564Q317.8407 311.73126 317.62195 312.23126Q317.41882 312.71564 316.91882 313.27814Q316.43445 313.825 315.30945 314.77814Q314.35632 315.575 314.07507 315.8719Q313.80945 316.15314 313.63757 316.4344L317.85632 316.4344ZM319.30945 313.21564Q319.30945 311.6844 319.62195 310.7625Q319.93445 309.825 320.54382 309.325Q321.16882 308.825 322.10632 308.825Q322.79382 308.825 323.30945 309.10626Q323.8407 309.3875 324.18445 309.91876Q324.5282 310.4344 324.7157 311.1844Q324.9032 311.9344 324.9032 313.21564Q324.9032 314.73126 324.5907 315.65314Q324.29382 316.575 323.66882 317.09064Q323.05945 317.59064 322.10632 317.59064Q320.87195 317.59064 320.1532 316.7Q319.30945 315.6375 319.30945 313.21564ZM320.38757 313.21564Q320.38757 315.325 320.88757 316.02814Q321.38757 316.73126 322.10632 316.73126Q322.8407 316.73126 323.32507 316.02814Q323.82507 315.325 323.82507 313.21564Q323.82507 311.09064 323.32507 310.40314Q322.8407 309.7 322.0907 309.7Q321.37195 309.7 320.93445 310.3094Q320.38757 311.09064 320.38757 313.21564ZM326.30945 313.21564Q326.30945 311.6844 326.62195 310.7625Q326.93445 309.825 327.54382 309.325Q328.16882 308.825 329.10632 308.825Q329.79382 308.825 330.30945 309.10626Q330.8407 309.3875 331.18445 309.91876Q331.5282 310.4344 331.7157 311.1844Q331.9032 311.9344 331.9032 313.21564Q331.9032 314.73126 331.5907 315.65314Q331.29382 316.575 330.66882 317.09064Q330.05945 317.59064 329.10632 317.59064Q327.87195 317.59064 327.1532 316.7Q326.30945 315.6375 326.30945 313.21564ZM327.38757 313.21564Q327.38757 315.325 327.88757 316.02814Q328.38757 316.73126 329.10632 316.73126Q329.8407 316.73126 330.32507 316.02814Q330.82507 315.325 330.82507 313.21564Q330.82507 311.09064 330.32507 310.40314Q329.8407 309.7 329.0907 309.7Q328.37195 309.7 327.93445 310.3094Q327.38757 311.09064 327.38757 313.21564ZM333.30945 313.21564Q333.30945 311.6844 333.62195 310.7625Q333.93445 309.825 334.54382 309.325Q335.16882 308.825 336.10632 308.825Q336.79382 308.825 337.30945 309.10626Q337.8407 309.3875 338.18445 309.91876Q338.5282 310.4344 338.7157 311.1844Q338.9032 311.9344 338.9032 313.21564Q338.9032 314.73126 338.5907 315.65314Q338.29382 316.575 337.66882 317.09064Q337.05945 317.59064 336.10632 317.59064Q334.87195 317.59064 334.1532 316.7Q333.30945 315.6375 333.30945 313.21564ZM334.38757 313.21564Q334.38757 315.325 334.88757 316.02814Q335.38757 316.73126 336.10632 316.73126Q336.8407 316.73126 337.32507 316.02814Q337.82507 315.325 337.82507 313.21564Q337.82507 311.09064 337.32507 310.40314Q336.8407 309.7 336.0907 309.7Q335.37195 309.7 334.93445 310.3094Q334.38757 311.09064 334.38757 313.21564ZM340.30945 313.21564Q340.30945 311.6844 340.62195 310.7625Q340.93445 309.825 341.54382 309.325Q342.16882 308.825 343.10632 308.825Q343.79382 308.825 344.30945 309.10626Q344.8407 309.3875 345.18445 309.91876Q345.5282 310.4344 345.7157 311.1844Q345.9032 311.9344 345.9032 313.21564Q345.9032 314.73126 345.5907 315.65314Q345.29382 316.575 344.66882 317.09064Q344.05945 317.59064 343.10632 317.59064Q341.87195 317.59064 341.1532 316.7Q340.30945 315.6375 340.30945 313.21564ZM341.38757 313.21564Q341.38757 315.325 341.88757 316.02814Q342.38757 316.73126 343.10632 316.73126Q343.8407 316.73126 344.32507 316.02814Q344.82507 315.325 344.82507 313.21564Q344.82507 311.09064 344.32507 310.40314Q343.8407 309.7 343.0907 309.7Q342.37195 309.7 341.93445 310.3094Q341.38757 311.09064 341.38757 313.21564ZM347.30945 313.21564Q347.30945 311.6844 347.62195 310.7625Q347.93445 309.825 348.54382 309.325Q349.16882 308.825 350.10632 308.825Q350.79382 308.825 351.30945 309.10626Q351.8407 309.3875 352.18445 309.91876Q352.5282 310.4344 352.7157 311.1844Q352.9032 311.9344 352.9032 313.21564Q352.9032 314.73126 352.5907 315.65314Q352.29382 316.575 351.66882 317.09064Q351.05945 317.59064 350.10632 317.59064Q348.87195 317.59064 348.1532 316.7Q347.30945 315.6375 347.30945 313.21564ZM348.38757 313.21564Q348.38757 315.325 348.88757 316.02814Q349.38757 316.73126 350.10632 316.73126Q350.8407 316.73126 351.32507 316.02814Q351.82507 315.325 351.82507 313.21564Q351.82507 311.09064 351.32507 310.40314Q350.8407 309.7 350.0907 309.7Q349.37195 309.7 348.93445 310.3094Q348.38757 311.09064 348.38757 313.21564ZM354.30945 313.21564Q354.30945 311.6844 354.62195 310.7625Q354.93445 309.825 355.54382 309.325Q356.16882 308.825 357.10632 308.825Q357.79382 308.825 358.30945 309.10626Q358.8407 309.3875 359.18445 309.91876Q359.5282 310.4344 359.7157 311.1844Q359.9032 311.9344 359.9032 313.21564Q359.9032 314.73126 359.5907 315.65314Q359.29382 316.575 358.66882 317.09064Q358.05945 317.59064 357.10632 317.59064Q355.87195 317.59064 355.1532 316.7Q354.30945 315.6375 354.30945 313.21564ZM355.38757 313.21564Q355.38757 315.325 355.88757 316.02814Q356.38757 316.73126 357.10632 316.73126Q357.8407 316.73126 358.32507 316.02814Q358.82507 315.325 358.82507 313.21564Q358.82507 311.09064 358.32507 310.40314Q357.8407 309.7 357.0907 309.7Q356.37195 309.7 355.93445 310.3094Q355.38757 311.09064 355.38757 313.21564Z" fill-rule="nonzero"/><path fill="#000000" d="M385.95093 316.4344L385.95093 317.45L380.26343 317.45Q380.26343 317.075 380.38843 316.71564Q380.60718 316.1375 381.07593 315.575Q381.5603 315.0125 382.46655 314.27814Q383.8728 313.1219 384.35718 312.45Q384.85718 311.77814 384.85718 311.1844Q384.85718 310.5594 384.40405 310.1375Q383.95093 309.7 383.23218 309.7Q382.46655 309.7 382.01343 310.15314Q381.5603 310.60626 381.54468 311.41876L380.46655 311.3094Q380.57593 310.09064 381.29468 309.46564Q382.02905 308.825 383.26343 308.825Q384.4978 308.825 385.21655 309.5125Q385.9353 310.2 385.9353 311.21564Q385.9353 311.73126 385.71655 312.23126Q385.51343 312.71564 385.01343 313.27814Q384.52905 313.825 383.40405 314.77814Q382.45093 315.575 382.16968 315.8719Q381.90405 316.15314 381.73218 316.4344L385.95093 316.4344ZM387.40405 315.2L388.51343 315.10626Q388.63843 315.91876 389.07593 316.325Q389.52905 316.73126 390.16968 316.73126Q390.91968 316.73126 391.45093 316.15314Q391.98218 315.575 391.98218 314.6375Q391.98218 313.73126 391.46655 313.21564Q390.96655 312.6844 390.13843 312.6844Q389.63843 312.6844 389.21655 312.91876Q388.8103 313.15314 388.57593 313.5125L387.59155 313.3875L388.41968 308.98126L392.70093 308.98126L392.70093 309.98126L389.26343 309.98126L388.8103 312.29376Q389.57593 311.7469 390.41968 311.7469Q391.54468 311.7469 392.3103 312.52814Q393.09155 313.3094 393.09155 314.54376Q393.09155 315.7 392.41968 316.5594Q391.59155 317.59064 390.16968 317.59064Q388.9978 317.59064 388.2478 316.9344Q387.51343 316.27814 387.40405 315.2ZM394.40405 313.21564Q394.40405 311.6844 394.71655 310.7625Q395.02905 309.825 395.63843 309.325Q396.26343 308.825 397.20093 308.825Q397.88843 308.825 398.40405 309.10626Q398.9353 309.3875 399.27905 309.91876Q399.6228 310.4344 399.8103 311.1844Q399.9978 311.9344 399.9978 313.21564Q399.9978 314.73126 399.6853 315.65314Q399.38843 316.575 398.76343 317.09064Q398.15405 317.59064 397.20093 317.59064Q395.96655 317.59064 395.2478 316.7Q394.40405 315.6375 394.40405 313.21564ZM395.48218 313.21564Q395.48218 315.325 395.98218 316.02814Q396.48218 316.73126 397.20093 316.73126Q397.9353 316.73126 398.41968 316.02814Q398.91968 315.325 398.91968 313.21564Q398.91968 311.09064 398.41968 310.40314Q397.9353 309.7 397.1853 309.7Q396.46655 309.7 396.02905 310.3094Q395.48218 311.09064 395.48218 313.21564ZM401.40405 313.21564Q401.40405 311.6844 401.71655 310.7625Q402.02905 309.825 402.63843 309.325Q403.26343 308.825 404.20093 308.825Q404.88843 308.825 405.40405 309.10626Q405.9353 309.3875 406.27905 309.91876Q406.6228 310.4344 406.8103 311.1844Q406.9978 311.9344 406.9978 313.21564Q406.9978 314.73126 406.6853 315.65314Q406.38843 316.575 405.76343 317.09064Q405.15405 317.59064 404.20093 317.59064Q402.96655 317.59064 402.2478 316.7Q401.40405 315.6375 401.40405 313.21564ZM402.48218 313.21564Q402.48218 315.325 402.98218 316.02814Q403.48218 316.73126 404.20093 316.73126Q404.9353 316.73126 405.41968 316.02814Q405.91968 315.325 405.91968 313.21564Q405.91968 311.09064 405.41968 310.40314Q404.9353 309.7 404.1853 309.7Q403.46655 309.7 403.02905 310.3094Q402.48218 311.09064 402.48218 313.21564ZM408.40405 313.21564Q408.40405 311.6844 408.71655 310.7625Q409.02905 309.825 409.63843 309.325Q410.26343 308.825 411.20093 308.825Q411.88843 308.825 412.40405 309.10626Q412.9353 309.3875 413.27905 309.91876Q413.6228 310.4344 413.8103 311.1844Q413.9978 311.9344 413.9978 313.21564Q413.9978 314.73126 413.6853 315.65314Q413.38843 316.575 412.76343 317.09064Q412.15405 317.59064 411.20093 317.59064Q409.96655 317.59064 409.2478 316.7Q408.40405 315.6375 408.40405 313.21564ZM409.48218 313.21564Q409.48218 315.325 409.98218 316.02814Q410.48218 316.73126 411.20093 316.73126Q411.9353 316.73126 412.41968 316.02814Q412.91968 315.325 412.91968 313.21564Q412.91968 311.09064 412.41968 310.40314Q411.9353 309.7 411.1853 309.7Q410.46655 309.7 410.02905 310.3094Q409.48218 311.09064 409.48218 313.21564ZM415.40405 313.21564Q415.40405 311.6844 415.71655 310.7625Q416.02905 309.825 416.63843 309.325Q417.26343 308.825 418.20093 308.825Q418.88843 308.825 419.40405 309.10626Q419.9353 309.3875 420.27905 309.91876Q420.6228 310.4344 420.8103 311.1844Q420.9978 311.9344 420.9978 313.21564Q420.9978 314.73126 420.6853 315.65314Q420.38843 316.575 419.76343 317.09064Q419.15405 317.59064 418.20093 317.59064Q416.96655 317.59064 416.2478 316.7Q415.40405 315.6375 415.40405 313.21564ZM416.48218 313.21564Q416.48218 315.325 416.98218 316.02814Q417.48218 316.73126 418.20093 316.73126Q418.9353 316.73126 419.41968 316.02814Q419.91968 315.325 419.91968 313.21564Q419.91968 311.09064 419.41968 310.40314Q418.9353 309.7 418.1853 309.7Q417.46655 309.7 417.02905 310.3094Q416.48218 311.09064 416.48218 313.21564ZM422.40405 313.21564Q422.40405 311.6844 422.71655 310.7625Q423.02905 309.825 423.63843 309.325Q424.26343 308.825 425.20093 308.825Q425.88843 308.825 426.40405 309.10626Q426.9353 309.3875 427.27905 309.91876Q427.6228 310.4344 427.8103 311.1844Q427.9978 311.9344 427.9978 313.21564Q427.9978 314.73126 427.6853 315.65314Q427.38843 316.575 426.76343 317.09064Q426.15405 317.59064 425.20093 317.59064Q423.96655 317.59064 423.2478 316.7Q422.40405 315.6375 422.40405 313.21564ZM423.48218 313.21564Q423.48218 315.325 423.98218 316.02814Q424.48218 316.73126 425.20093 316.73126Q425.9353 316.73126 426.41968 316.02814Q426.91968 315.325 426.91968 313.21564Q426.91968 311.09064 426.41968 310.40314Q425.9353 309.7 425.1853 309.7Q424.46655 309.7 424.02905 310.3094Q423.48218 311.09064 423.48218 313.21564Z" fill-rule="nonzero"/><path fill="#000000" d="M448.49866 315.1844L449.56116 315.04376Q449.73303 315.9344 450.17053 316.34064Q450.60803 316.73126 451.23303 316.73126Q451.98303 316.73126 452.49866 316.21564Q453.01428 315.7 453.01428 314.9344Q453.01428 314.21564 452.5299 313.7469Q452.06116 313.2625 451.32678 313.2625Q451.0299 313.2625 450.57678 313.3875L450.70178 312.45Q450.81116 312.46564 450.87366 312.46564Q451.54553 312.46564 452.07678 312.1219Q452.62366 311.7625 452.62366 311.02814Q452.62366 310.45 452.23303 310.075Q451.8424 309.6844 451.2174 309.6844Q450.60803 309.6844 450.18616 310.075Q449.7799 310.46564 449.67053 311.23126L448.60803 311.04376Q448.79553 309.9969 449.48303 309.41876Q450.17053 308.825 451.18616 308.825Q451.88928 308.825 452.48303 309.1375Q453.07678 309.4344 453.38928 309.95Q453.70178 310.46564 453.70178 311.0594Q453.70178 311.60626 453.4049 312.075Q453.10803 312.52814 452.5299 312.79376Q453.2799 312.96564 453.70178 313.52814Q454.12366 314.075 454.12366 314.91876Q454.12366 316.04376 453.29553 316.825Q452.48303 317.60626 451.23303 317.60626Q450.10803 317.60626 449.35803 316.9344Q448.60803 316.2469 448.49866 315.1844ZM455.49866 313.21564Q455.49866 311.6844 455.81116 310.7625Q456.12366 309.825 456.73303 309.325Q457.35803 308.825 458.29553 308.825Q458.98303 308.825 459.49866 309.10626Q460.0299 309.3875 460.37366 309.91876Q460.7174 310.4344 460.9049 311.1844Q461.0924 311.9344 461.0924 313.21564Q461.0924 314.73126 460.7799 315.65314Q460.48303 316.575 459.85803 317.09064Q459.24866 317.59064 458.29553 317.59064Q457.06116 317.59064 456.3424 316.7Q455.49866 315.6375 455.49866 313.21564ZM456.57678 313.21564Q456.57678 315.325 457.07678 316.02814Q457.57678 316.73126 458.29553 316.73126Q459.0299 316.73126 459.51428 316.02814Q460.01428 315.325 460.01428 313.21564Q460.01428 311.09064 459.51428 310.40314Q459.0299 309.7 458.2799 309.7Q457.56116 309.7 457.12366 310.3094Q456.57678 311.09064 456.57678 313.21564ZM462.49866 313.21564Q462.49866 311.6844 462.81116 310.7625Q463.12366 309.825 463.73303 309.325Q464.35803 308.825 465.29553 308.825Q465.98303 308.825 466.49866 309.10626Q467.0299 309.3875 467.37366 309.91876Q467.7174 310.4344 467.9049 311.1844Q468.0924 311.9344 468.0924 313.21564Q468.0924 314.73126 467.7799 315.65314Q467.48303 316.575 466.85803 317.09064Q466.24866 317.59064 465.29553 317.59064Q464.06116 317.59064 463.3424 316.7Q462.49866 315.6375 462.49866 313.21564ZM463.57678 313.21564Q463.57678 315.325 464.07678 316.02814Q464.57678 316.73126 465.29553 316.73126Q466.0299 316.73126 466.51428 316.02814Q467.01428 315.325 467.01428 313.21564Q467.01428 311.09064 466.51428 310.40314Q466.0299 309.7 465.2799 309.7Q464.56116 309.7 464.12366 310.3094Q463.57678 311.09064 463.57678 313.21564ZM469.49866 313.21564Q469.49866 311.6844 469.81116 310.7625Q470.12366 309.825 470.73303 309.325Q471.35803 308.825 472.29553 308.825Q472.98303 308.825 473.49866 309.10626Q474.0299 309.3875 474.37366 309.91876Q474.7174 310.4344 474.9049 311.1844Q475.0924 311.9344 475.0924 313.21564Q475.0924 314.73126 474.7799 315.65314Q474.48303 316.575 473.85803 317.09064Q473.24866 317.59064 472.29553 317.59064Q471.06116 317.59064 470.3424 316.7Q469.49866 315.6375 469.49866 313.21564ZM470.57678 313.21564Q470.57678 315.325 471.07678 316.02814Q471.57678 316.73126 472.29553 316.73126Q473.0299 316.73126 473.51428 316.02814Q474.01428 315.325 474.01428 313.21564Q474.01428 311.09064 473.51428 310.40314Q473.0299 309.7 472.2799 309.7Q471.56116 309.7 471.12366 310.3094Q470.57678 311.09064 470.57678 313.21564ZM476.49866 313.21564Q476.49866 311.6844 476.81116 310.7625Q477.12366 309.825 477.73303 309.325Q478.35803 308.825 479.29553 308.825Q479.98303 308.825 480.49866 309.10626Q481.0299 309.3875 481.37366 309.91876Q481.7174 310.4344 481.9049 311.1844Q482.0924 311.9344 482.0924 313.21564Q482.0924 314.73126 481.7799 315.65314Q481.48303 316.575 480.85803 317.09064Q480.24866 317.59064 479.29553 317.59064Q478.06116 317.59064 477.3424 316.7Q476.49866 315.6375 476.49866 313.21564ZM477.57678 313.21564Q477.57678 315.325 478.07678 316.02814Q478.57678 316.73126 479.29553 316.73126Q480.0299 316.73126 480.51428 316.02814Q481.01428 315.325 481.01428 313.21564Q481.01428 311.09064 480.51428 310.40314Q480.0299 309.7 479.2799 309.7Q478.56116 309.7 478.12366 310.3094Q477.57678 311.09064 477.57678 313.21564ZM483.49866 313.21564Q483.49866 311.6844 483.81116 310.7625Q484.12366 309.825 484.73303 309.325Q485.35803 308.825 486.29553 308.825Q486.98303 308.825 487.49866 309.10626Q488.0299 309.3875 488.37366 309.91876Q488.7174 310.4344 488.9049 311.1844Q489.0924 311.9344 489.0924 313.21564Q489.0924 314.73126 488.7799 315.65314Q488.48303 316.575 487.85803 317.09064Q487.24866 317.59064 486.29553 317.59064Q485.06116 317.59064 484.3424 316.7Q483.49866 315.6375 483.49866 313.21564ZM484.57678 313.21564Q484.57678 315.325 485.07678 316.02814Q485.57678 316.73126 486.29553 316.73126Q487.0299 316.73126 487.51428 316.02814Q488.01428 315.325 488.01428 313.21564Q488.01428 311.09064 487.51428 310.40314Q487.0299 309.7 486.2799 309.7Q485.56116 309.7 485.12366 310.3094Q484.57678 311.09064 484.57678 313.21564ZM490.49866 313.21564Q490.49866 311.6844 490.81116 310.7625Q491.12366 309.825 491.73303 309.325Q492.35803 308.825 493.29553 308.825Q493.98303 308.825 494.49866 309.10626Q495.0299 309.3875 495.37366 309.91876Q495.7174 310.4344 495.9049 311.1844Q496.0924 311.9344 496.0924 313.21564Q496.0924 314.73126 495.7799 315.65314Q495.48303 316.575 494.85803 317.09064Q494.24866 317.59064 493.29553 317.59064Q492.06116 317.59064 491.3424 316.7Q490.49866 315.6375 490.49866 313.21564ZM491.57678 313.21564Q491.57678 315.325 492.07678 316.02814Q492.57678 316.73126 493.29553 316.73126Q494.0299 316.73126 494.51428 316.02814Q495.01428 315.325 495.01428 313.21564Q495.01428 311.09064 494.51428 310.40314Q494.0299 309.7 493.2799 309.7Q492.56116 309.7 492.12366 310.3094Q491.57678 311.09064 491.57678 313.21564Z" fill-rule="nonzero"/><path fill="#000000" d="M516.59326 315.1844L517.65576 315.04376Q517.82764 315.9344 518.26514 316.34064Q518.70264 316.73126 519.32764 316.73126Q520.07764 316.73126 520.59326 316.21564Q521.1089 315.7 521.1089 314.9344Q521.1089 314.21564 520.6245 313.7469Q520.15576 313.2625 519.4214 313.2625Q519.1245 313.2625 518.6714 313.3875L518.7964 312.45Q518.90576 312.46564 518.96826 312.46564Q519.64014 312.46564 520.1714 312.1219Q520.71826 311.7625 520.71826 311.02814Q520.71826 310.45 520.32764 310.075Q519.937 309.6844 519.312 309.6844Q518.70264 309.6844 518.28076 310.075Q517.8745 310.46564 517.76514 311.23126L516.70264 311.04376Q516.89014 309.9969 517.57764 309.41876Q518.26514 308.825 519.28076 308.825Q519.9839 308.825 520.57764 309.1375Q521.1714 309.4344 521.4839 309.95Q521.7964 310.46564 521.7964 311.0594Q521.7964 311.60626 521.4995 312.075Q521.20264 312.52814 520.6245 312.79376Q521.3745 312.96564 521.7964 313.52814Q522.21826 314.075 522.21826 314.91876Q522.21826 316.04376 521.39014 316.825Q520.57764 317.60626 519.32764 317.60626Q518.20264 317.60626 517.45264 316.9344Q516.70264 316.2469 516.59326 315.1844ZM523.59326 315.2L524.70264 315.10626Q524.82764 315.91876 525.26514 316.325Q525.71826 316.73126 526.3589 316.73126Q527.1089 316.73126 527.64014 316.15314Q528.1714 315.575 528.1714 314.6375Q528.1714 313.73126 527.65576 313.21564Q527.15576 312.6844 526.32764 312.6844Q525.82764 312.6844 525.40576 312.91876Q524.9995 313.15314 524.76514 313.5125L523.78076 313.3875L524.6089 308.98126L528.89014 308.98126L528.89014 309.98126L525.45264 309.98126L524.9995 312.29376Q525.76514 311.7469 526.6089 311.7469Q527.7339 311.7469 528.4995 312.52814Q529.28076 313.3094 529.28076 314.54376Q529.28076 315.7 528.6089 316.5594Q527.78076 317.59064 526.3589 317.59064Q525.187 317.59064 524.437 316.9344Q523.70264 316.27814 523.59326 315.2ZM530.59326 313.21564Q530.59326 311.6844 530.90576 310.7625Q531.21826 309.825 531.82764 309.325Q532.45264 308.825 533.39014 308.825Q534.07764 308.825 534.59326 309.10626Q535.1245 309.3875 535.46826 309.91876Q535.812 310.4344 535.9995 311.1844Q536.187 311.9344 536.187 313.21564Q536.187 314.73126 535.8745 315.65314Q535.57764 316.575 534.95264 317.09064Q534.34326 317.59064 533.39014 317.59064Q532.15576 317.59064 531.437 316.7Q530.59326 315.6375 530.59326 313.21564ZM531.6714 313.21564Q531.6714 315.325 532.1714 316.02814Q532.6714 316.73126 533.39014 316.73126Q534.1245 316.73126 534.6089 316.02814Q535.1089 315.325 535.1089 313.21564Q535.1089 311.09064 534.6089 310.40314Q534.1245 309.7 533.3745 309.7Q532.65576 309.7 532.21826 310.3094Q531.6714 311.09064 531.6714 313.21564ZM537.59326 313.21564Q537.59326 311.6844 537.90576 310.7625Q538.21826 309.825 538.82764 309.325Q539.45264 308.825 540.39014 308.825Q541.07764 308.825 541.59326 309.10626Q542.1245 309.3875 542.46826 309.91876Q542.812 310.4344 542.9995 311.1844Q543.187 311.9344 543.187 313.21564Q543.187 314.73126 542.8745 315.65314Q542.57764 316.575 541.95264 317.09064Q541.34326 317.59064 540.39014 317.59064Q539.15576 317.59064 538.437 316.7Q537.59326 315.6375 537.59326 313.21564ZM538.6714 313.21564Q538.6714 315.325 539.1714 316.02814Q539.6714 316.73126 540.39014 316.73126Q541.1245 316.73126 541.6089 316.02814Q542.1089 315.325 542.1089 313.21564Q542.1089 311.09064 541.6089 310.40314Q541.1245 309.7 540.3745 309.7Q539.65576 309.7 539.21826 310.3094Q538.6714 311.09064 538.6714 313.21564ZM544.59326 313.21564Q544.59326 311.6844 544.90576 310.7625Q545.21826 309.825 545.82764 309.325Q546.45264 308.825 547.39014 308.825Q548.07764 308.825 548.59326 309.10626Q549.1245 309.3875 549.46826 309.91876Q549.812 310.4344 549.9995 311.1844Q550.187 311.9344 550.187 313.21564Q550.187 314.73126 549.8745 315.65314Q549.57764 316.575 548.95264 317.09064Q548.34326 317.59064 547.39014 317.59064Q546.15576 317.59064 545.437 316.7Q544.59326 315.6375 544.59326 313.21564ZM545.6714 313.21564Q545.6714 315.325 546.1714 316.02814Q546.6714 316.73126 547.39014 316.73126Q548.1245 316.73126 548.6089 316.02814Q549.1089 315.325 549.1089 313.21564Q549.1089 311.09064 548.6089 310.40314Q548.1245 309.7 547.3745 309.7Q546.65576 309.7 546.21826 310.3094Q545.6714 311.09064 545.6714 313.21564ZM551.59326 313.21564Q551.59326 311.6844 551.90576 310.7625Q552.21826 309.825 552.82764 309.325Q553.45264 308.825 554.39014 308.825Q555.07764 308.825 555.59326 309.10626Q556.1245 309.3875 556.46826 309.91876Q556.812 310.4344 556.9995 311.1844Q557.187 311.9344 557.187 313.21564Q557.187 314.73126 556.8745 315.65314Q556.57764 316.575 555.95264 317.09064Q555.34326 317.59064 554.39014 317.59064Q553.15576 317.59064 552.437 316.7Q551.59326 315.6375 551.59326 313.21564ZM552.6714 313.21564Q552.6714 315.325 553.1714 316.02814Q553.6714 316.73126 554.39014 316.73126Q555.1245 316.73126 555.6089 316.02814Q556.1089 315.325 556.1089 313.21564Q556.1089 311.09064 555.6089 310.40314Q555.1245 309.7 554.3745 309.7Q553.65576 309.7 553.21826 310.3094Q552.6714 311.09064 552.6714 313.21564ZM558.59326 313.21564Q558.59326 311.6844 558.90576 310.7625Q559.21826 309.825 559.82764 309.325Q560.45264 308.825 561.39014 308.825Q562.07764 308.825 562.59326 309.10626Q563.1245 309.3875 563.46826 309.91876Q563.812 310.4344 563.9995 311.1844Q564.187 311.9344 564.187 313.21564Q564.187 314.73126 563.8745 315.65314Q563.57764 316.575 562.95264 317.09064Q562.34326 317.59064 561.39014 317.59064Q560.15576 317.59064 559.437 316.7Q558.59326 315.6375 558.59326 313.21564ZM559.6714 313.21564Q559.6714 315.325 560.1714 316.02814Q560.6714 316.73126 561.39014 316.73126Q562.1245 316.73126 562.6089 316.02814Q563.1089 315.325 563.1089 313.21564Q563.1089 311.09064 562.6089 310.40314Q562.1245 309.7 561.3745 309.7Q560.65576 309.7 560.21826 310.3094Q559.6714 311.09064 559.6714 313.21564Z" fill-rule="nonzero"/><path fill="#757575" d="M20.190624 37.55L20.190624 23.2375L29.846874 23.2375L29.846874 24.925L22.08125 24.925L22.08125 29.3625L28.8 29.3625L28.8 31.05L22.08125 31.05L22.08125 37.55L20.190624 37.55ZM38.64375 36.26875Q37.659374 37.096874 36.753124 37.440624Q35.846874 37.784374 34.815624 37.784374Q33.1125 37.784374 32.190624 36.95625Q31.26875 36.1125 31.26875 34.815624Q31.26875 34.05 31.6125 33.425Q31.971874 32.8 32.534374 32.425Q33.096874 32.034374 33.8 31.83125Q34.315624 31.70625 35.3625 31.565624Q37.4875 31.315624 38.4875 30.971874Q38.503124 30.6125 38.503124 30.503124Q38.503124 29.440624 38.003124 28.9875Q37.33125 28.39375 36.003124 28.39375Q34.753124 28.39375 34.159374 28.83125Q33.58125 29.26875 33.3 30.378124L31.58125 30.14375Q31.815624 29.034374 32.346874 28.3625Q32.878124 27.675 33.89375 27.315624Q34.909374 26.940624 36.253124 26.940624Q37.58125 26.940624 38.409374 27.253124Q39.2375 27.565624 39.628124 28.05Q40.01875 28.51875 40.175 29.2375Q40.26875 29.690624 40.26875 30.8625L40.26875 33.20625Q40.26875 35.659374 40.378124 36.315624Q40.4875 36.95625 40.83125 37.55L38.9875 37.55Q38.721874 37.003124 38.64375 36.26875ZM38.4875 32.346874Q37.534374 32.7375 35.6125 33.003124Q34.534374 33.159374 34.08125 33.3625Q33.64375 33.55 33.39375 33.925Q33.14375 34.3 33.14375 34.76875Q33.14375 35.471874 33.675 35.940624Q34.20625 36.409374 35.2375 36.409374Q36.253124 36.409374 37.034374 35.971874Q37.83125 35.51875 38.20625 34.753124Q38.4875 34.14375 38.4875 32.9875L38.4875 32.346874ZM42.878124 37.55L42.878124 23.2375L44.64375 23.2375L44.64375 31.39375L48.8 27.175L51.065624 27.175L47.1125 31.01875L51.471874 37.55L49.3 37.55L45.878124 32.253124L44.64375 33.440624L44.64375 37.55L42.878124 37.55ZM59.971874 34.20625L61.784374 34.440624Q61.3625 36.01875 60.190624 36.909374Q59.034374 37.784374 57.221874 37.784374Q54.95625 37.784374 53.6125 36.39375Q52.284374 34.9875 52.284374 32.45625Q52.284374 29.83125 53.628124 28.39375Q54.971874 26.940624 57.128124 26.940624Q59.20625 26.940624 60.51875 28.3625Q61.846874 29.76875 61.846874 32.346874Q61.846874 32.503124 61.83125 32.815624L54.096874 32.815624Q54.190624 34.51875 55.065624 35.425Q55.940624 36.33125 57.2375 36.33125Q58.20625 36.33125 58.878124 35.83125Q59.565624 35.315624 59.971874 34.20625ZM54.190624 31.3625L59.9875 31.3625Q59.878124 30.065624 59.33125 29.409374Q58.4875 28.39375 57.14375 28.39375Q55.940624 28.39375 55.1125 29.20625Q54.284374 30.003124 54.190624 31.3625ZM63.846874 37.55L63.846874 27.175L65.425 27.175L65.425 28.753124Q66.03438 27.64375 66.55 27.3Q67.06563 26.940624 67.675 26.940624Q68.56563 26.940624 69.4875 27.503124L68.87813 29.14375Q68.2375 28.753124 67.59688 28.753124Q67.01875 28.753124 66.55 29.1125Q66.09688 29.45625 65.89375 30.065624Q65.6125 31.003124 65.6125 32.1125L65.6125 37.55L63.846874 37.55ZM77.09688 37.55L77.09688 23.2375L82.4875 23.2375Q83.925 23.2375 84.675 23.3625Q85.72188 23.55 86.44063 24.05Q87.15938 24.534374 87.58125 25.425Q88.01875 26.315624 88.01875 27.378124Q88.01875 29.20625 86.84688 30.471874Q85.69063 31.721874 82.65938 31.721874L78.9875 31.721874L78.9875 37.55L77.09688 37.55ZM78.9875 30.034374L82.69063 30.034374Q84.51875 30.034374 85.28438 29.3625Q86.06563 28.675 86.06563 27.425Q86.06563 26.534374 85.6125 25.89375Q85.15938 25.253124 84.425 25.05Q83.94063 24.925 82.64375 24.925L78.9875 24.925L78.9875 30.034374ZM96.97188 34.20625L98.78438 34.440624Q98.3625 36.01875 97.19063 36.909374Q96.03438 37.784374 94.22188 37.784374Q91.95625 37.784374 90.6125 36.39375Q89.28438 34.9875 89.28438 32.45625Q89.28438 29.83125 90.62813 28.39375Q91.97188 26.940624 94.12813 26.940624Q96.20625 26.940624 97.51875 28.3625Q98.84688 29.76875 98.84688 32.346874Q98.84688 32.503124 98.83125 32.815624L91.09688 32.815624Q91.19063 34.51875 92.06563 35.425Q92.94063 36.33125 94.2375 36.33125Q95.20625 36.33125 95.87813 35.83125Q96.56563 35.315624 96.97188 34.20625ZM91.19063 31.3625L96.9875 31.3625Q96.87813 30.065624 96.33125 29.409374Q95.4875 28.39375 94.14375 28.39375Q92.94063 28.39375 92.1125 29.20625Q91.28438 30.003124 91.19063 31.3625ZM100.84688 37.55L100.84688 27.175L102.425 27.175L102.425 28.753124Q103.03438 27.64375 103.55 27.3Q104.06563 26.940624 104.675 26.940624Q105.56563 26.940624 106.4875 27.503124L105.87813 29.14375Q105.2375 28.753124 104.59688 28.753124Q104.01875 28.753124 103.55 29.1125Q103.09688 29.45625 102.89375 30.065624Q102.6125 31.003124 102.6125 32.1125L102.6125 37.55L100.84688 37.55ZM108.28438 37.55L108.28438 28.55L106.7375 28.55L106.7375 27.175L108.28438 27.175L108.28438 26.08125Q108.28438 25.034374 108.47188 24.51875Q108.72188 23.83125 109.3625 23.409374Q110.00313 22.9875 111.15938 22.9875Q111.90938 22.9875 112.8 23.159374L112.53438 24.690624Q111.9875 24.596874 111.50313 24.596874Q110.70625 24.596874 110.3625 24.940624Q110.03438 25.284374 110.03438 26.221874L110.03438 27.175L112.06563 27.175L112.06563 28.55L110.03438 28.55L110.03438 37.55L108.28438 37.55ZM113.22188 32.3625Q113.22188 29.4875 114.81563 28.096874Q116.15938 26.940624 118.08125 26.940624Q120.22188 26.940624 121.56563 28.346874Q122.925 29.753124 122.925 32.221874Q122.925 34.221874 122.33125 35.378124Q121.7375 36.51875 120.58125 37.159374Q119.44063 37.784374 118.08125 37.784374Q115.89375 37.784374 114.55 36.39375Q113.22188 34.9875 113.22188 32.3625ZM115.01875 32.3625Q115.01875 34.3625 115.87813 35.346874Q116.75313 36.33125 118.08125 36.33125Q119.39375 36.33125 120.25313 35.346874Q121.12813 34.346874 121.12813 32.3Q121.12813 30.378124 120.25313 29.39375Q119.37813 28.39375 118.08125 28.39375Q116.75313 28.39375 115.87813 29.39375Q115.01875 30.378124 115.01875 32.3625ZM124.84688 37.55L124.84688 27.175L126.425 27.175L126.425 28.753124Q127.03438 27.64375 127.55 27.3Q128.06563 26.940624 128.675 26.940624Q129.56563 26.940624 130.4875 27.503124L129.87813 29.14375Q129.2375 28.753124 128.59688 28.753124Q128.01875 28.753124 127.55 29.1125Q127.09688 29.45625 126.89375 30.065624Q126.6125 31.003124 126.6125 32.1125L126.6125 37.55L124.84688 37.55ZM131.8625 37.55L131.8625 27.175L133.44063 27.175L133.44063 28.628124Q133.925 27.878124 134.7375 27.409374Q135.55 26.940624 136.58125 26.940624Q137.7375 26.940624 138.47188 27.425Q139.20625 27.89375 139.51875 28.753124Q140.75313 26.940624 142.72188 26.940624Q144.26875 26.940624 145.09688 27.8Q145.925 28.659374 145.925 30.425L145.925 37.55L144.175 37.55L144.175 31.01875Q144.175 29.95625 144.00313 29.503124Q143.83125 29.034374 143.37813 28.753124Q142.94063 28.471874 142.33125 28.471874Q141.2375 28.471874 140.50313 29.20625Q139.78438 29.925 139.78438 31.51875L139.78438 37.55L138.03438 37.55L138.03438 30.815624Q138.03438 29.64375 137.59688 29.065624Q137.175 28.471874 136.19063 28.471874Q135.45625 28.471874 134.81563 28.8625Q134.19063 29.253124 133.90938 30.003124Q133.62813 30.753124 133.62813 32.175L133.62813 37.55L131.8625 37.55ZM155.64375 36.26875Q154.65938 37.096874 153.75313 37.440624Q152.84688 37.784374 151.81563 37.784374Q150.1125 37.784374 149.19063 36.95625Q148.26875 36.1125 148.26875 34.815624Q148.26875 34.05 148.6125 33.425Q148.97188 32.8 149.53438 32.425Q150.09688 32.034374 150.8 31.83125Q151.31563 31.70625 152.3625 31.565624Q154.4875 31.315624 155.4875 30.971874Q155.50313 30.6125 155.50313 30.503124Q155.50313 29.440624 155.00313 28.9875Q154.33125 28.39375 153.00313 28.39375Q151.75313 28.39375 151.15938 28.83125Q150.58125 29.26875 150.3 30.378124L148.58125 30.14375Q148.81563 29.034374 149.34688 28.3625Q149.87813 27.675 150.89375 27.315624Q151.90938 26.940624 153.25313 26.940624Q154.58125 26.940624 155.40938 27.253124Q156.2375 27.565624 156.62813 28.05Q157.01875 28.51875 157.175 29.2375Q157.26875 29.690624 157.26875 30.8625L157.26875 33.20625Q157.26875 35.659374 157.37813 36.315624Q157.4875 36.95625 157.83125 37.55L155.9875 37.55Q155.72188 37.003124 155.64375 36.26875ZM155.4875 32.346874Q154.53438 32.7375 152.6125 33.003124Q151.53438 33.159374 151.08125 33.3625Q150.64375 33.55 150.39375 33.925Q150.14375 34.3 150.14375 34.76875Q150.14375 35.471874 150.675 35.940624Q151.20625 36.409374 152.2375 36.409374Q153.25313 36.409374 154.03438 35.971874Q154.83125 35.51875 155.20625 34.753124Q155.4875 34.14375 155.4875 32.9875L155.4875 32.346874ZM159.8625 37.55L159.8625 27.175L161.45625 27.175L161.45625 28.659374Q162.59688 26.940624 164.75313 26.940624Q165.69063 26.940624 166.47188 27.284374Q167.26875 27.6125 167.65938 28.159374Q168.05 28.70625 168.20625 29.45625Q168.3 29.95625 168.3 31.175L168.3 37.55L166.53438 37.55L166.53438 31.2375Q166.53438 30.159374 166.33125 29.628124Q166.12813 29.096874 165.59688 28.784374Q165.08125 28.471874 164.37813 28.471874Q163.25313 28.471874 162.44063 29.190624Q161.62813 29.89375 161.62813 31.878124L161.62813 37.55L159.8625 37.55ZM177.64375 33.753124L179.3625 33.971874Q179.08125 35.76875 177.90938 36.784374Q176.75313 37.784374 175.05 37.784374Q172.925 37.784374 171.62813 36.39375Q170.33125 35.003124 170.33125 32.409374Q170.33125 30.721874 170.87813 29.471874Q171.44063 28.20625 172.58125 27.58125Q173.72188 26.940624 175.06563 26.940624Q176.75313 26.940624 177.81563 27.8Q178.89375 28.659374 179.20625 30.221874L177.4875 30.4875Q177.25313 29.440624 176.62813 28.925Q176.00313 28.39375 175.12813 28.39375Q173.8 28.39375 172.97188 29.346874Q172.14375 30.3 172.14375 32.346874Q172.14375 34.440624 172.94063 35.39375Q173.7375 36.33125 175.03438 36.33125Q176.06563 36.33125 176.75313 35.70625Q177.45625 35.065624 177.64375 33.753124ZM187.97188 34.20625L189.78438 34.440624Q189.3625 36.01875 188.19063 36.909374Q187.03438 37.784374 185.22188 37.784374Q182.95625 37.784374 181.6125 36.39375Q180.28438 34.9875 180.28438 32.45625Q180.28438 29.83125 181.62813 28.39375Q182.97188 26.940624 185.12813 26.940624Q187.20625 26.940624 188.51875 28.3625Q189.84688 29.76875 189.84688 32.346874Q189.84688 32.503124 189.83125 32.815624L182.09688 32.815624Q182.19063 34.51875 183.06563 35.425Q183.94063 36.33125 185.2375 36.33125Q186.20625 36.33125 186.87813 35.83125Q187.56563 35.315624 187.97188 34.20625ZM182.19063 31.3625L187.9875 31.3625Q187.87813 30.065624 187.33125 29.409374Q186.4875 28.39375 185.14375 28.39375Q183.94063 28.39375 183.1125 29.20625Q182.28438 30.003124 182.19063 31.3625Z" fill-rule="nonzero"/></svg>